# author: headus 3D tools
#  using: ply2obj v1.11
#   from: uvlayout v2.10.03
# 96 vertices
v 45.773365 0.966228 7.884666
v 44.860653 0.966228 6.702752
v 43.110815 0.966228 5.764778
v 41.647778 0.966228 5.214014
v 39.662106 0.966228 4.955050
v 37.676438 0.966228 5.162559
v 35.885136 0.966228 5.764778
v 34.463566 0.966228 6.702753
v 33.550854 0.966228 7.884666
v 33.236355 0.966228 9.194829
v 33.550854 0.966228 10.504994
v 34.463566 0.966228 11.686909
v 35.885147 0.966228 12.624882
v 37.676438 0.966228 13.227097
v 39.662106 0.966228 13.434609
v 41.647778 0.966228 13.227097
v 43.439068 0.966228 12.624882
v 44.860651 0.966228 11.686909
v 45.773365 0.966228 10.504994
v 46.087863 0.966228 9.194829
v 45.773365 1.271473 7.884666
v 44.860653 1.271473 6.702752
v 43.110815 1.271473 5.764778
v 41.647778 1.271473 5.214014
v 39.662106 1.271473 4.955050
v 37.676438 1.271473 5.162559
v 35.885136 1.271473 5.764778
v 34.463566 1.271473 6.702753
v 33.550854 1.271473 7.884666
v 33.236355 1.271473 9.194829
v 33.550854 1.271473 10.504994
v 34.463566 1.271473 11.686909
v 35.885147 1.271473 12.624882
v 37.676438 1.271473 13.227097
v 39.662106 1.271473 13.434609
v 41.647778 1.271473 13.227097
v 43.439068 1.271473 12.624882
v 44.860651 1.271473 11.686909
v 45.773365 1.271473 10.504994
v 46.087863 1.271473 9.194829
v 39.662106 0.966228 9.194829
v 45.068631 1.271473 8.037215
v 44.271207 1.271473 6.983040
v 39.662106 1.271473 9.194829
v 42.761280 1.271473 6.145968
v 41.422226 1.271473 5.640145
v 39.661927 1.271473 5.403699
v 37.885113 1.271473 5.593616
v 36.295887 1.271473 6.143127
v 35.048844 1.271473 6.986548
v 34.255588 1.271473 8.037215
v 33.983700 1.271473 9.194829
v 34.255588 1.271473 10.352445
v 35.048844 1.271473 11.403114
v 36.295887 1.271473 12.246533
v 37.885113 1.271473 12.796044
v 39.662106 1.271473 12.987548
v 41.439102 1.271473 12.796040
v 43.028325 1.271473 12.246533
v 44.275377 1.271473 11.403114
v 45.068627 1.271473 10.352445
v 45.340516 1.271473 9.194829
v 44.860653 6.351819 6.702753
v 44.271207 6.351819 6.983044
v 43.110815 6.351819 5.764778
v 42.761280 6.351819 6.145968
v 41.647778 6.351819 5.214014
v 41.422226 6.351819 5.640145
v 39.662106 6.351819 4.955050
v 39.661927 6.351819 5.403699
v 37.676438 6.351819 5.162559
v 37.885113 6.351819 5.593616
v 35.885136 6.351819 5.764778
v 36.295887 6.351819 6.143127
v 34.463566 6.351819 6.702753
v 35.048844 6.351819 6.986548
v 33.550854 6.351819 7.884666
v 34.255588 6.351819 8.037215
v 33.236355 6.351819 9.194829
v 33.983700 6.351819 9.194829
v 33.550854 6.351819 10.504994
v 34.255588 6.351819 10.352445
v 34.463566 6.351819 11.686909
v 35.048844 6.351819 11.403114
v 35.885147 6.351819 12.624882
v 36.295887 6.351819 12.246533
v 37.676438 6.351819 13.227097
v 37.885113 6.351819 12.796044
v 39.662106 6.351819 13.434609
v 39.662106 6.351819 12.987548
v 41.647778 6.351819 13.227097
v 41.439102 6.351819 12.796040
v 43.439068 6.351819 12.624882
v 43.028325 6.351819 12.246533
v 44.860651 6.351819 11.686909
v 44.275377 6.351819 11.403114
# 179 normals
vn 0.897119 0.000000 -0.441769
vn 0.622841 0.000000 -0.782213
vn 0.485778 0.073552 -0.870903
vn 0.411127 0.888635 -0.202374
vn 0.420375 0.000000 -0.907221
vn 0.420375 0.000000 -0.907221
vn 0.228469 0.000000 -0.973479
vn 0.228469 0.000000 -0.973479
vn 0.012788 0.000000 -0.999878
vn 0.012788 0.000000 -0.999878
vn -0.209608 0.000000 -0.977660
vn -0.209608 0.000000 -0.977660
vn -0.432125 0.000000 -0.901575
vn -0.432125 0.000000 -0.901575
vn -0.672130 0.000000 -0.740219
vn -0.672130 0.000000 -0.740219
vn -0.897119 0.000000 -0.441769
vn -0.897119 0.000000 -0.441769
vn -1.000000 0.000000 0.000000
vn -1.000000 0.000000 0.000000
vn -0.897119 0.000000 0.441769
vn -0.897119 0.000000 0.441769
vn -0.672130 0.000000 0.740219
vn -0.672130 0.000000 0.740219
vn -0.432125 0.000000 0.901575
vn -0.432125 0.000000 0.901575
vn -0.209608 0.000000 0.977660
vn -0.209608 0.000000 0.977660
vn 0.000000 0.000000 1.000000
vn 0.000000 0.000000 1.000000
vn 0.209608 0.000000 0.977660
vn 0.209608 0.000000 0.977660
vn 0.432125 0.000000 0.901575
vn 0.432125 0.000000 0.901575
vn 0.672130 0.000000 0.740219
vn 0.561497 0.084173 0.823140
vn 0.897119 0.000000 0.441769
vn 0.411616 0.888482 0.202619
vn 1.000000 0.000000 0.000000
vn 0.435543 0.900110 0.000000
vn 0.000000 -1.000000 0.000000
vn 0.000000 -1.000000 0.000000
vn 0.000000 -1.000000 0.000000
vn 0.000000 -1.000000 0.000000
vn 0.000000 -1.000000 0.000000
vn 0.000000 -1.000000 0.000000
vn 0.000000 -1.000000 0.000000
vn 0.000000 -1.000000 0.000000
vn 0.000000 -1.000000 0.000000
vn 0.000000 -1.000000 0.000000
vn 0.000000 -1.000000 0.000000
vn 0.000000 -1.000000 0.000000
vn 0.000000 -1.000000 0.000000
vn 0.000000 -1.000000 0.000000
vn 0.000000 -1.000000 0.000000
vn 0.000000 -1.000000 0.000000
vn 0.000000 -1.000000 0.000000
vn 0.000000 -1.000000 0.000000
vn 0.000000 -1.000000 0.000000
vn 0.000000 -1.000000 0.000000
vn 0.000000 -1.000000 0.000000
vn 0.000000 1.000000 0.000000
vn 0.000000 1.000000 0.000000
vn 0.000000 1.000000 0.000000
vn 0.000000 1.000000 0.000000
vn 0.000000 1.000000 0.000000
vn 0.000000 1.000000 0.000000
vn 0.000000 1.000000 0.000000
vn 0.000000 1.000000 0.000000
vn 0.000000 1.000000 0.000000
vn 0.000000 1.000000 0.000000
vn 0.000000 1.000000 0.000000
vn 0.000000 1.000000 0.000000
vn 0.000000 1.000000 0.000000
vn 0.000000 1.000000 0.000000
vn 0.000000 1.000000 0.000000
vn 0.000000 1.000000 0.000000
vn 0.000000 1.000000 0.000000
vn 0.000000 1.000000 0.000000
vn 0.000000 1.000000 0.000000
vn 0.000000 1.000000 0.000000
vn 0.000000 1.000000 0.000000
vn 0.417475 0.233107 0.878075
vn 0.000000 1.000000 0.000000
vn 0.000000 1.000000 0.000000
vn 0.407221 0.316395 0.856498
vn 0.000000 1.000000 0.000000
vn 0.000000 1.000000 0.000000
vn 0.000000 1.000000 0.000000
vn 0.000000 1.000000 0.000000
vn 0.000000 1.000000 0.000000
vn 0.000000 1.000000 0.000000
vn 0.000000 1.000000 0.000000
vn 0.000000 1.000000 0.000000
vn 0.000000 1.000000 0.000000
vn 0.000000 1.000000 0.000000
vn 0.000000 1.000000 0.000000
vn 0.000000 1.000000 0.000000
vn 0.000000 1.000000 0.000000
vn 0.000000 1.000000 0.000000
vn 0.000000 1.000000 0.000000
vn 0.000000 1.000000 0.000000
vn 0.000000 1.000000 0.000000
vn 0.000000 1.000000 0.000000
vn 0.000000 1.000000 0.000000
vn 0.000000 1.000000 0.000000
vn 0.000000 1.000000 0.000000
vn 0.000000 1.000000 0.000000
vn 0.000000 1.000000 0.000000
vn 0.000000 1.000000 0.000000
vn 0.000000 1.000000 0.000000
vn 0.000000 1.000000 0.000000
vn 0.000000 1.000000 0.000000
vn 0.000000 1.000000 0.000000
vn 0.423885 0.235244 -0.874535
vn 0.418849 0.279833 -0.863792
vn 0.420375 0.000000 -0.907221
vn 0.472441 0.000000 -0.881188
vn -0.426265 0.000000 0.904383
vn -0.484832 0.000000 0.874535
vn -0.484832 0.000000 0.874535
vn -0.426265 0.000000 0.904383
vn 0.228469 0.000000 -0.973479
vn -0.232894 0.000000 0.972441
vn -0.232894 0.000000 0.972441
vn 0.012788 0.000000 -0.999878
vn -0.012971 0.000000 0.999878
vn -0.012971 0.000000 0.999878
vn -0.209608 0.000000 -0.977660
vn 0.214552 0.000000 0.976561
vn 0.214552 0.000000 0.976561
vn -0.432125 0.000000 -0.901575
vn 0.440762 0.000000 0.897455
vn 0.440762 0.000000 0.897455
vn -0.672130 0.000000 -0.740219
vn 0.680309 0.000000 0.732711
vn 0.680309 0.000000 0.732711
vn -0.897119 0.000000 -0.441769
vn 0.900568 0.000000 0.434414
vn 0.900568 0.000000 0.434414
vn -1.000000 0.000000 0.000000
vn 1.000000 0.000000 0.000000
vn 1.000000 0.000000 0.000000
vn -0.897119 0.000000 0.441769
vn 0.900568 0.000000 -0.434414
vn 0.900568 0.000000 -0.434414
vn -0.672130 0.000000 0.740219
vn 0.680309 0.000000 -0.732711
vn 0.680309 0.000000 -0.732711
vn -0.432125 0.000000 0.901575
vn 0.440762 0.000000 -0.897455
vn 0.440762 0.000000 -0.897455
vn -0.209608 0.000000 0.977660
vn 0.214979 0.000000 -0.976531
vn 0.214979 0.000000 -0.976531
vn 0.000000 0.000000 1.000000
vn 0.000000 0.000000 -1.000000
vn 0.000000 0.000000 -1.000000
vn 0.209608 0.000000 0.977660
vn -0.214979 0.000000 -0.976531
vn -0.214979 0.000000 -0.976531
vn 0.432125 0.000000 0.901575
vn -0.440762 0.000000 -0.897455
vn -0.440762 0.000000 -0.897455
vn 0.550693 0.000000 0.834646
vn -0.560215 0.000000 -0.828176
vn -0.560215 0.000000 -0.828176
vn 0.429256 0.000000 0.903040
vn 0.429256 0.000000 0.903040
vn 0.436306 0.000000 -0.899622
vn 0.436306 0.000000 -0.899622
vn 0.000000 1.000000 0.000000
vn 0.000000 1.000000 0.000000
vn 0.000000 1.000000 0.000000
vn 0.000000 1.000000 0.000000
vn 0.000000 1.000000 0.000000
vn 0.000000 1.000000 0.000000
vn 0.000000 1.000000 0.000000
vn 0.000000 1.000000 0.000000
# 139 uv coords
vt 0.690620 0.827525
vt 0.664448 0.793478
vt 0.613852 0.765689
vt 0.571072 0.749508
vt 0.513124 0.741904
vt 0.455184 0.748056
vt 0.403050 0.765857
vt 0.361928 0.793300
vt 0.335749 0.827448
vt 0.326798 0.864922
vt 0.335753 0.902396
vt 0.361934 0.936549
vt 0.403058 0.963991
vt 0.455192 0.981791
vt 0.513163 0.987967
vt 0.571138 0.981812
vt 0.623280 0.964026
vt 0.664416 0.936596
vt 0.690609 0.902457
vt 0.699573 0.864987
vt 0.513187 0.864917
vt 0.674253 0.078563
vt 0.831557 0.112255
vt 0.674251 0.145936
vt 0.666340 0.112250
vt 0.174137 0.164386
vt 0.160557 0.170910
vt 0.178571 0.208626
vt 0.165421 0.213473
vt 0.183817 0.265385
vt 0.170673 0.266453
vt 0.188917 0.321927
vt 0.174951 0.319953
vt 0.193653 0.375073
vt 0.177982 0.370678
vt 0.197643 0.422055
vt 0.179750 0.416845
vt 0.200425 0.461930
vt 0.180498 0.458284
vt 0.201318 0.496791
vt 0.180523 0.496635
vt 0.199901 0.531635
vt 0.179924 0.534981
vt 0.196520 0.571467
vt 0.178555 0.576407
vt 0.191820 0.618394
vt 0.176096 0.622550
vt 0.186282 0.671490
vt 0.172302 0.673227
vt 0.180318 0.728035
vt 0.167216 0.726634
vt 0.174312 0.784602
vt 0.161133 0.779872
vt 0.168535 0.837954
vt 0.154561 0.829900
vt 0.670012 0.787110
vt 0.698267 0.823880
vt 0.617603 0.757671
vt 0.707967 0.864984
vt 0.573153 0.741055
vt 0.698274 0.906069
vt 0.513231 0.733204
vt 0.670324 0.942852
vt 0.453301 0.739534
vt 0.627147 0.971809
vt 0.399182 0.758076
vt 0.573028 0.990331
vt 0.356016 0.787046
vt 0.513161 0.996704
vt 0.328083 0.823839
vt 0.453297 0.990309
vt 0.318403 0.864922
vt 0.399188 0.971770
vt 0.328086 0.906005
vt 0.356022 0.942799
vt 0.653749 0.074126
vt 0.680307 0.039735
vt 0.697459 0.047888
vt 0.741398 0.023530
vt 0.644596 0.112250
vt 0.780367 0.008815
vt 0.653746 0.150373
vt 0.831585 0.001947
vt 0.697332 0.176510
vt 0.680300 0.184765
vt 0.883276 0.007480
vt 0.733622 0.201054
vt 0.929509 0.023468
vt 0.779872 0.217044
vt 0.965787 0.048004
vt 0.831583 0.222607
vt 0.988864 0.078562
vt 0.883285 0.217024
vt 0.996777 0.112235
vt 0.929518 0.201029
vt 0.988871 0.145916
vt 0.965795 0.176488
vt 0.314879 0.091194
vt 0.321063 0.148612
vt 0.167990 0.107336
vt 0.013652 0.187236
vt 0.007852 0.137434
vt 0.154431 0.120610
vt 0.050770 0.015267
vt 0.064307 0.001947
vt 0.325625 0.193787
vt 0.018306 0.228345
vt 0.331103 0.251601
vt 0.023314 0.279341
vt 0.336358 0.309204
vt 0.027417 0.330660
vt 0.341222 0.363881
vt 0.030324 0.379062
vt 0.345282 0.413545
vt 0.032047 0.422583
vt 0.347963 0.457646
vt 0.032796 0.460837
vt 0.348733 0.497889
vt 0.032836 0.495520
vt 0.347359 0.538114
vt 0.032278 0.530196
vt 0.344012 0.582166
vt 0.030960 0.568425
vt 0.339203 0.631754
vt 0.028588 0.611893
vt 0.333516 0.686326
vt 0.024957 0.660212
vt 0.327429 0.743794
vt 0.020085 0.711420
vt 0.321262 0.801290
vt 0.014256 0.762577
vt 0.315072 0.855847
vt 0.007943 0.810743
vt 0.309003 0.905048
vt 0.162304 0.886414
vt 0.050876 0.985378
vt 0.148011 0.873961
vt 0.065141 0.997816
vt 0.001947 0.854013
# 114 polygons
usemtl initialShadingGroup
s 1
g pCylinder15
f 1/1/1 2/2/2 22/56/3 21/57/4
f 2/2/2 3/3/5 23/58/6 22/56/3
f 3/3/5 4/4/7 24/60/8 23/58/6
f 4/4/7 5/5/9 25/62/10 24/60/8
f 5/5/9 6/6/11 26/64/12 25/62/10
f 6/6/11 7/7/13 27/66/14 26/64/12
f 7/7/13 8/8/15 28/68/16 27/66/14
f 8/8/15 9/9/17 29/70/18 28/68/16
f 9/9/17 10/10/19 30/72/20 29/70/18
f 10/10/19 11/11/21 31/74/22 30/72/20
f 11/11/21 12/12/23 32/75/24 31/74/22
f 12/12/23 13/13/25 33/73/26 32/75/24
f 13/13/25 14/14/27 34/71/28 33/73/26
f 14/14/27 15/15/29 35/69/30 34/71/28
f 15/15/29 16/16/31 36/67/32 35/69/30
f 16/16/31 17/17/33 37/65/34 36/67/32
f 17/17/33 18/18/35 38/63/36 37/65/34
f 18/18/35 19/19/37 39/61/38 38/63/36
f 19/19/37 20/20/39 40/59/40 39/61/38
f 20/20/39 1/1/1 21/57/4 40/59/40
s 2
f 2/2/41 1/1/42 41/21/43
f 3/3/44 2/2/41 41/21/43
f 4/4/45 3/3/44 41/21/43
f 5/5/46 4/4/45 41/21/43
f 6/6/47 5/5/46 41/21/43
f 7/7/48 6/6/47 41/21/43
f 8/8/49 7/7/48 41/21/43
f 9/9/50 8/8/49 41/21/43
f 10/10/51 9/9/50 41/21/43
f 11/11/52 10/10/51 41/21/43
f 12/12/53 11/11/52 41/21/43
f 13/13/54 12/12/53 41/21/43
f 14/14/55 13/13/54 41/21/43
f 15/15/56 14/14/55 41/21/43
f 16/16/57 15/15/56 41/21/43
f 17/17/58 16/16/57 41/21/43
f 18/18/59 17/17/58 41/21/43
f 19/19/60 18/18/59 41/21/43
f 20/20/61 19/19/60 41/21/43
f 1/1/42 20/20/61 41/21/43
s 3
f 42/22/62 43/78/63 44/23/64
f 43/78/63 45/79/65 44/23/64
f 45/79/65 46/81/66 44/23/64
f 46/81/66 47/83/67 44/23/64
f 47/83/67 48/86/68 44/23/64
f 48/86/68 49/88/69 44/23/64
f 49/88/69 50/90/70 44/23/64
f 50/90/70 51/92/71 44/23/64
f 51/92/71 52/94/72 44/23/64
f 52/94/72 53/96/73 44/23/64
f 53/96/73 54/97/74 44/23/64
f 54/97/74 55/95/75 44/23/64
f 55/95/75 56/93/76 44/23/64
f 56/93/76 57/91/77 44/23/64
f 57/91/77 58/89/78 44/23/64
f 58/89/78 59/87/79 44/23/64
f 59/87/79 60/84/80 44/23/64
f 60/84/80 61/24/81 44/23/64
f 61/24/81 62/25/82 44/23/64
f 62/25/82 42/22/62 44/23/64
s 4
f 63/100/83 65/26/84 66/27/85 64/103/86
f 65/26/84 67/28/87 68/29/88 66/27/85
f 67/28/87 69/30/89 70/31/90 68/29/88
f 69/30/89 71/32/91 72/33/92 70/31/90
f 71/32/91 73/34/93 74/35/94 72/33/92
f 73/34/93 75/36/95 76/37/96 74/35/94
f 75/36/95 77/38/97 78/39/98 76/37/96
f 77/38/97 79/40/99 80/41/100 78/39/98
f 79/40/99 81/42/101 82/43/102 80/41/100
f 81/42/101 83/44/103 84/45/104 82/43/102
f 83/44/103 85/46/105 86/47/106 84/45/104
f 85/46/105 87/48/107 88/49/108 86/47/106
f 87/48/107 89/50/109 90/51/110 88/49/108
f 89/50/109 91/52/111 92/53/112 90/51/110
f 91/52/111 93/54/113 94/55/114 92/53/112
f 93/54/113 95/135/115 96/137/116 94/55/114
s 1
f 22/98/3 23/99/6 65/26/117 63/100/118
s 5
f 45/101/119 43/102/120 64/103/121 66/27/122
s 1
f 23/99/6 24/106/8 67/28/123 65/26/117
s 5
f 46/107/124 45/101/119 66/27/122 68/29/125
s 1
f 24/106/8 25/108/10 69/30/126 67/28/123
s 5
f 47/109/127 46/107/124 68/29/125 70/31/128
s 1
f 25/108/10 26/110/12 71/32/129 69/30/126
s 5
f 48/111/130 47/109/127 70/31/128 72/33/131
s 1
f 26/110/12 27/112/14 73/34/132 71/32/129
s 5
f 49/113/133 48/111/130 72/33/131 74/35/134
s 1
f 27/112/14 28/114/16 75/36/135 73/34/132
s 5
f 50/115/136 49/113/133 74/35/134 76/37/137
s 1
f 28/114/16 29/116/18 77/38/138 75/36/135
s 5
f 51/117/139 50/115/136 76/37/137 78/39/140
s 1
f 29/116/18 30/118/20 79/40/141 77/38/138
s 5
f 52/119/142 51/117/139 78/39/140 80/41/143
s 1
f 30/118/20 31/120/22 81/42/144 79/40/141
s 5
f 53/121/145 52/119/142 80/41/143 82/43/146
s 1
f 31/120/22 32/122/24 83/44/147 81/42/144
s 5
f 54/123/148 53/121/145 82/43/146 84/45/149
s 1
f 32/122/24 33/124/26 85/46/150 83/44/147
s 5
f 55/125/151 54/123/148 84/45/149 86/47/152
s 1
f 33/124/26 34/126/28 87/48/153 85/46/150
s 5
f 56/127/154 55/125/151 86/47/152 88/49/155
s 1
f 34/126/28 35/128/30 89/50/156 87/48/153
s 5
f 57/129/157 56/127/154 88/49/155 90/51/158
s 1
f 35/128/30 36/130/32 91/52/159 89/50/156
s 5
f 58/131/160 57/129/157 90/51/158 92/53/161
s 1
f 36/130/32 37/132/34 93/54/162 91/52/159
s 5
f 59/133/163 58/131/160 92/53/161 94/55/164
s 1
f 37/132/34 38/134/36 95/135/165 93/54/162
s 5
f 60/139/166 59/133/163 94/55/164 96/137/167
s 4
f 64/103/86 43/104/168 22/105/169 63/100/83
f 60/136/170 96/137/116 95/135/115 38/138/171
s 1
f 61/24/172 60/84/173 38/85/36 39/82/38
f 62/25/174 61/24/175 39/82/38 40/80/40
f 42/22/176 62/25/177 40/80/40 21/76/4
f 43/78/178 42/22/179 21/76/4 22/77/3
# h3dt: 96 139 179 114
