# This file uses centimeters as units for non-parametric coordinates.

mtllib controll panel.mtl
g default
v 0.713691 0.802326 0.726445
v 0.713691 0.848733 0.726445
v 1.000000 0.848733 -0.190333
v 1.000000 0.802326 -0.190333
v 1.000000 0.802326 0.185347
v 1.000000 0.848733 0.185347
v 0.844991 0.802326 0.497882
v 0.844991 0.848733 0.497882
v 1.000000 1.066280 -0.082831
v 1.000000 1.066280 -0.190333
v 0.000000 0.802326 0.726445
v 0.000000 0.848733 0.726445
v 0.000000 0.848733 0.497882
v 0.000000 0.848733 0.185347
v 0.000000 1.066280 -0.082831
v 0.000000 1.066280 -0.190333
v 0.000000 0.848733 -0.190333
v 0.000000 0.802326 -0.190333
v 0.000000 0.802326 0.185347
v 0.000000 0.802326 0.497882
v 0.154091 0.802326 0.259496
v 0.143481 0.802326 0.291513
v 0.119227 0.802326 0.235941
v 0.179705 0.802326 0.246234
v 0.179705 0.535156 0.246234
v 0.143481 0.535156 0.291513
v 0.154091 0.535156 0.259496
v 0.154091 0.802326 0.415284
v 0.179705 0.802326 0.428546
v 0.119590 0.802326 0.440091
v 0.143481 0.802326 0.383267
v 0.179705 0.535156 0.428546
v 0.154091 0.535156 0.415284
v 0.143481 0.535156 0.383267
v 0.718326 0.802326 0.259618
v 0.692712 0.802326 0.246234
v 0.754383 0.802326 0.240566
v 0.728698 0.802326 0.291807
v 0.728698 0.535156 0.291807
v 0.692712 0.535156 0.246234
v 0.718326 0.535156 0.259618
v 0.716896 0.802326 0.415406
v 0.727741 0.802326 0.383563
v 0.750443 0.802326 0.442193
v 0.691283 0.802326 0.428546
v 0.691283 0.535156 0.428546
v 0.727741 0.535156 0.383563
v 0.716896 0.535156 0.415406
v 0.165403 0.802326 -0.114727
v 0.150000 0.802326 -0.068244
v 0.114387 0.802326 -0.147360
v 0.202590 0.802326 -0.133981
v 0.202590 0.536021 -0.133981
v 0.150000 0.536021 -0.068244
v 0.165403 0.536021 -0.114727
v 0.165403 0.802326 0.109741
v 0.202590 0.802326 0.128995
v 0.114387 0.802326 0.142374
v 0.150000 0.802326 0.063257
v 0.202590 0.536021 0.128995
v 0.165403 0.536021 0.109741
v 0.150000 0.536021 0.063257
v 0.834597 0.802326 -0.114727
v 0.797410 0.802326 -0.133981
v 0.885613 0.802326 -0.147360
v 0.850000 0.802326 -0.068244
v 0.850000 0.536021 -0.068244
v 0.797410 0.536021 -0.133981
v 0.834597 0.536021 -0.114727
v 0.834597 0.802326 0.109741
v 0.850000 0.802326 0.063257
v 0.885613 0.802326 0.142374
v 0.797410 0.802326 0.128995
v 0.797410 0.536021 0.128995
v 0.850000 0.536021 0.063257
v 0.834597 0.536021 0.109741
v -0.713691 0.802326 0.726445
v -0.713691 0.848733 0.726445
v -1.000000 0.848733 -0.190333
v -1.000000 0.802326 -0.190333
v -1.000000 0.802326 0.185347
v -1.000000 0.848733 0.185347
v -0.844991 0.802326 0.497882
v -0.844991 0.848733 0.497882
v -1.000000 1.066280 -0.082831
v -1.000000 1.066280 -0.190333
v -0.154091 0.802326 0.259496
v -0.143481 0.802326 0.291513
v -0.119227 0.802326 0.235941
v -0.179705 0.802326 0.246234
v -0.179705 0.535156 0.246234
v -0.143481 0.535156 0.291513
v -0.154091 0.535156 0.259496
v -0.154091 0.802326 0.415284
v -0.179705 0.802326 0.428546
v -0.119590 0.802326 0.440091
v -0.143481 0.802326 0.383267
v -0.179705 0.535156 0.428546
v -0.154091 0.535156 0.415284
v -0.143481 0.535156 0.383267
v -0.718326 0.802326 0.259618
v -0.692712 0.802326 0.246234
v -0.754383 0.802326 0.240566
v -0.728698 0.802326 0.291807
v -0.728698 0.535156 0.291807
v -0.692712 0.535156 0.246234
v -0.718326 0.535156 0.259618
v -0.716896 0.802326 0.415406
v -0.727741 0.802326 0.383563
v -0.750443 0.802326 0.442193
v -0.691283 0.802326 0.428546
v -0.691283 0.535156 0.428546
v -0.727741 0.535156 0.383563
v -0.716896 0.535156 0.415406
v -0.165403 0.802326 -0.114727
v -0.150000 0.802326 -0.068244
v -0.114387 0.802326 -0.147360
v -0.202590 0.802326 -0.133981
v -0.202590 0.536021 -0.133981
v -0.150000 0.536021 -0.068244
v -0.165403 0.536021 -0.114727
v -0.165403 0.802326 0.109741
v -0.202590 0.802326 0.128995
v -0.114387 0.802326 0.142374
v -0.150000 0.802326 0.063257
v -0.202590 0.536021 0.128995
v -0.165403 0.536021 0.109741
v -0.150000 0.536021 0.063257
v -0.834597 0.802326 -0.114727
v -0.797410 0.802326 -0.133981
v -0.885613 0.802326 -0.147360
v -0.850000 0.802326 -0.068244
v -0.850000 0.536021 -0.068244
v -0.797410 0.536021 -0.133981
v -0.834597 0.536021 -0.114727
v -0.834597 0.802326 0.109741
v -0.850000 0.802326 0.063257
v -0.885613 0.802326 0.142374
v -0.797410 0.802326 0.128995
v -0.797410 0.536021 0.128995
v -0.850000 0.536021 0.063257
v -0.834597 0.536021 0.109741
vt 0.625000 0.000000
vt 0.625000 0.250000
vt 0.625000 0.500000
vt 0.625000 1.000000
vt 0.875000 0.000000
vt 0.875000 0.250000
vt 0.791667 0.000000
vt 0.625000 0.416667
vt 0.791667 0.250000
vt 0.708333 0.000000
vt 0.625000 0.333333
vt 0.708333 0.250000
vt 0.625000 0.416667
vt 0.625000 0.500000
vt 0.500000 0.000000
vt 0.500000 1.000000
vt 0.500000 0.250000
vt 0.500000 0.333333
vt 0.500000 0.416667
vt 0.500000 0.416667
vt 0.500000 0.500000
vt 0.500000 0.500000
vt 0.500000 0.750000
vt 0.500000 0.916667
vt 0.625000 0.916667
vt 0.500000 0.854016
vt 0.507731 0.833333
vt 0.507754 0.916667
vt 0.500000 0.895970
vt 0.617221 0.833333
vt 0.625000 0.854165
vt 0.625000 0.896101
vt 0.617294 0.916667
vt 0.507731 0.833333
vt 0.500000 0.833333
vt 0.500000 0.895984
vt 0.500000 0.916667
vt 0.625000 0.854172
vt 0.625000 0.833333
vt 0.617295 0.916667
vt 0.625000 0.916667
vt 0.507756 0.916667
vt 0.500000 0.854030
vt 0.617218 0.833333
vt 0.625000 0.896105
vt 0.500000 0.833333
vt 0.500000 0.833333
vt 0.500000 0.916667
vt 0.500000 0.916667
vt 0.625000 0.833333
vt 0.625000 0.833333
vt 0.625000 0.916667
vt 0.625000 0.916667
vt 0.500000 0.833333
vt 0.625000 0.750000
vt 0.625000 0.833333
vt 0.500000 0.770838
vt 0.509391 0.750000
vt 0.509392 0.833333
vt 0.500000 0.812502
vt 0.615608 0.750000
vt 0.625000 0.770831
vt 0.625000 0.812495
vt 0.615609 0.833333
vt 0.509396 0.750000
vt 0.500000 0.750000
vt 0.500000 0.812495
vt 0.500000 0.833333
vt 0.625000 0.770838
vt 0.625000 0.750000
vt 0.615604 0.833333
vt 0.625000 0.833333
vt 0.509391 0.833333
vt 0.500000 0.770831
vt 0.615609 0.750000
vt 0.625000 0.812502
vt 0.500000 0.750000
vt 0.500000 0.750000
vt 0.500000 0.833333
vt 0.500000 0.833333
vt 0.625000 0.750000
vt 0.625000 0.750000
vt 0.625000 0.833333
vt 0.625000 0.833333
vt 0.625000 0.000000
vt 0.708333 0.000000
vt 0.708333 0.250000
vt 0.625000 0.250000
vt 0.791667 0.250000
vt 0.791667 0.000000
vt 0.875000 0.000000
vt 0.875000 0.250000
vt 0.625000 0.416667
vt 0.625000 0.500000
vt 0.625000 0.500000
vt 0.625000 0.416667
vt 0.500000 0.000000
vt 0.500000 0.250000
vt 0.500000 0.333333
vt 0.625000 0.333333
vt 0.500000 0.416667
vt 0.500000 0.416667
vt 0.500000 0.500000
vt 0.500000 0.500000
vt 0.500000 0.750000
vt 0.625000 0.750000
vt 0.500000 1.000000
vt 0.500000 0.916667
vt 0.625000 0.916667
vt 0.625000 1.000000
vt 0.500000 0.833333
vt 0.500000 0.833333
vt 0.500000 0.854016
vt 0.500000 0.895984
vt 0.500000 0.916667
vt 0.625000 0.833333
vt 0.625000 0.833333
vt 0.617221 0.833333
vt 0.507731 0.833333
vt 0.625000 0.916667
vt 0.625000 0.896101
vt 0.625000 0.854172
vt 0.507754 0.916667
vt 0.617295 0.916667
vt 0.500000 0.895970
vt 0.500000 0.854030
vt 0.507731 0.833333
vt 0.617218 0.833333
vt 0.625000 0.854165
vt 0.625000 0.896105
vt 0.617294 0.916667
vt 0.507756 0.916667
vt 0.500000 0.833333
vt 0.500000 0.833333
vt 0.500000 0.916667
vt 0.500000 0.916667
vt 0.625000 0.833333
vt 0.625000 0.833333
vt 0.625000 0.916667
vt 0.625000 0.916667
vt 0.500000 0.750000
vt 0.500000 0.770838
vt 0.500000 0.812495
vt 0.500000 0.833333
vt 0.625000 0.750000
vt 0.615608 0.750000
vt 0.509396 0.750000
vt 0.625000 0.833333
vt 0.625000 0.812495
vt 0.625000 0.770838
vt 0.509392 0.833333
vt 0.615604 0.833333
vt 0.500000 0.812502
vt 0.500000 0.770831
vt 0.509391 0.750000
vt 0.615609 0.750000
vt 0.625000 0.770831
vt 0.625000 0.812502
vt 0.615609 0.833333
vt 0.509391 0.833333
vt 0.500000 0.750000
vt 0.500000 0.750000
vt 0.500000 0.833333
vt 0.500000 0.833333
vt 0.625000 0.750000
vt 0.625000 0.750000
vt 0.625000 0.833333
vt 0.625000 0.833333
vn 0.867109 0.000000 0.498118
vn 0.883893 0.000000 0.467690
vn 0.883893 0.000000 0.467690
vn 0.867109 0.000000 0.498118
vn 0.996281 -0.000000 0.086161
vn 0.975561 0.000000 0.219729
vn 1.000000 0.000000 -0.000000
vn 1.000000 -0.000000 -0.000000
vn 1.000000 -0.000000 -0.000000
vn 1.000000 -0.000000 -0.000000
vn 0.000000 0.000000 1.000000
vn 0.000000 0.000000 1.000000
vn 0.000000 0.000000 1.000000
vn 0.000000 0.000000 1.000000
vn 0.000000 1.000000 0.000000
vn 0.000000 1.000000 0.000000
vn 0.000000 1.000000 0.000000
vn 0.000000 1.000000 0.000000
vn 0.000000 1.000000 0.000000
vn 0.000000 1.000000 0.000000
vn 0.000000 0.776606 0.629987
vn 0.000000 0.776606 0.629987
vn 0.000000 0.776606 0.629987
vn 0.000000 0.776606 0.629987
vn 0.000000 1.000000 0.000000
vn 0.000000 1.000000 0.000000
vn 0.000000 1.000000 0.000000
vn 0.000000 1.000000 0.000000
vn -0.000000 -0.000000 -1.000000
vn 0.000000 -0.000000 -1.000000
vn 0.000000 0.000000 -1.000000
vn 0.000000 0.000000 -1.000000
vn 0.000000 -0.000001 -1.000000
vn -0.000000 -0.000001 -1.000000
vn 0.000000 -1.000000 0.000000
vn 0.000000 -1.000000 -0.000000
vn 0.000000 -1.000000 -0.000000
vn 0.000000 -1.000000 0.000000
vn 0.000000 -1.000000 0.000000
vn 0.000000 -1.000000 -0.000000
vn 0.000000 -1.000000 -0.000000
vn 0.000000 -1.000000 -0.000000
vn 0.000000 -1.000000 -0.000000
vn 0.000000 -1.000000 -0.000000
vn 0.000000 -1.000000 -0.000000
vn 0.000000 -1.000000 -0.000000
vn 0.000000 -1.000000 -0.000000
vn 0.000000 -1.000000 -0.000000
vn 0.000000 -1.000000 -0.000000
vn 0.000000 -1.000000 -0.000000
vn 0.000000 -1.000000 -0.000000
vn 0.000000 -1.000000 -0.000000
vn -0.996346 -0.000000 0.085407
vn -0.996346 -0.000000 0.085407
vn -0.996346 -0.000000 -0.085406
vn -0.996346 -0.000000 -0.085406
vn -0.024615 0.000000 -0.999697
vn -0.024615 0.000000 -0.999697
vn 0.024842 0.000000 -0.999691
vn 0.024842 0.000000 -0.999691
vn 0.997127 0.000000 -0.075750
vn 0.997127 0.000000 -0.075750
vn 0.995472 -0.000000 0.095053
vn 0.995472 -0.000000 0.095053
vn 0.024453 -0.000000 0.999701
vn 0.024453 -0.000000 0.999701
vn -0.024680 -0.000000 0.999695
vn -0.024680 -0.000000 0.999695
vn -0.949241 0.000000 -0.314550
vn -0.949241 0.000000 -0.314550
vn -0.459791 0.000000 -0.888027
vn -0.459791 0.000000 -0.888027
vn -0.459789 -0.000000 0.888028
vn -0.459789 -0.000000 0.888028
vn -0.949241 0.000000 0.314551
vn -0.949241 0.000000 0.314551
vn 0.463127 0.000000 -0.886292
vn 0.463127 0.000000 -0.886292
vn 0.951802 0.000000 -0.306713
vn 0.951802 0.000000 -0.306713
vn 0.946607 -0.000000 0.322388
vn 0.946607 -0.000000 0.322388
vn 0.456442 -0.000000 0.889753
vn 0.456442 -0.000000 0.889753
vn 0.000000 -1.000000 0.000000
vn 0.000000 -1.000000 0.000000
vn 0.000000 -1.000000 0.000000
vn 0.000000 -1.000000 0.000000
vn 0.000000 -1.000000 -0.000000
vn 0.000000 -1.000000 -0.000000
vn 0.000000 -1.000000 -0.000000
vn 0.000000 -1.000000 -0.000000
vn 0.000000 -1.000000 -0.000000
vn 0.000000 -1.000000 -0.000000
vn 0.000000 -1.000000 -0.000000
vn 0.000000 -1.000000 -0.000000
vn 0.000000 -1.000000 -0.000000
vn 0.000000 -1.000000 -0.000000
vn 0.000000 -1.000000 -0.000000
vn 0.000000 -1.000000 -0.000000
vn 0.000000 -1.000000 -0.000000
vn 0.000000 -1.000000 -0.000000
vn 0.000000 -1.000000 0.000000
vn 0.000000 -1.000000 0.000000
vn 0.000000 -1.000000 0.000000
vn 0.000000 -1.000000 -0.000000
vn 0.000000 -1.000000 -0.000000
vn 0.000000 -1.000000 -0.000000
vn 0.000000 -1.000000 -0.000000
vn 0.000000 -1.000000 0.000000
vn 0.000000 -1.000000 0.000000
vn 0.000000 -1.000000 0.000000
vn 0.000000 -1.000000 0.000000
vn 0.000000 -1.000000 0.000000
vn -0.996276 -0.000000 0.086220
vn -0.996276 -0.000000 0.086220
vn -0.996276 0.000000 -0.086220
vn -0.996276 0.000000 -0.086220
vn -0.030451 0.000000 -0.999536
vn -0.030451 0.000000 -0.999536
vn 0.030451 0.000000 -0.999536
vn 0.030451 0.000000 -0.999536
vn 0.996276 0.000000 -0.086221
vn 0.996276 0.000000 -0.086221
vn 0.996276 -0.000000 0.086220
vn 0.996276 -0.000000 0.086220
vn 0.030451 -0.000000 0.999536
vn 0.030451 -0.000000 0.999536
vn -0.030451 -0.000000 0.999536
vn -0.030451 -0.000000 0.999536
vn -0.949241 0.000000 -0.314551
vn -0.949241 0.000000 -0.314551
vn -0.459789 0.000000 -0.888028
vn -0.459789 0.000000 -0.888028
vn -0.459791 -0.000000 0.888027
vn -0.459791 -0.000000 0.888027
vn -0.949241 -0.000000 0.314551
vn -0.949241 -0.000000 0.314551
vn 0.459789 0.000000 -0.888028
vn 0.459789 0.000000 -0.888028
vn 0.949241 0.000000 -0.314549
vn 0.949241 0.000000 -0.314549
vn 0.949240 -0.000000 0.314552
vn 0.949240 -0.000000 0.314552
vn 0.459791 -0.000000 0.888027
vn 0.459791 -0.000000 0.888027
vn 0.000000 -1.000000 0.000000
vn 0.000000 -1.000000 0.000000
vn 0.000000 -1.000000 0.000000
vn 0.000000 -1.000000 0.000000
vn 0.000000 -1.000000 0.000000
vn 0.000000 -1.000000 0.000000
vn 0.000000 -1.000000 0.000000
vn 0.000000 -1.000000 0.000000
vn 0.000000 -1.000000 0.000000
vn 0.000000 -1.000000 0.000000
vn 0.000000 -1.000000 0.000000
vn 0.000000 -1.000000 0.000000
vn 0.000000 -1.000000 0.000000
vn 0.000000 -1.000000 0.000000
vn 0.000000 -1.000000 0.000000
vn 0.000000 -1.000000 0.000000
vn -0.867109 0.000000 0.498118
vn -0.867109 0.000000 0.498118
vn -0.883893 0.000000 0.467690
vn -0.883893 0.000000 0.467690
vn -0.996281 0.000000 0.086161
vn -1.000000 0.000000 -0.000000
vn -1.000000 0.000000 -0.000000
vn -0.975561 0.000000 0.219729
vn -1.000000 0.000000 -0.000000
vn -1.000000 0.000000 -0.000000
vn 0.000000 0.000000 1.000000
vn 0.000000 0.000000 1.000000
vn 0.000000 1.000000 0.000000
vn 0.000000 1.000000 0.000000
vn 0.000000 1.000000 0.000000
vn 0.000000 0.776606 0.629987
vn 0.000000 0.776606 0.629987
vn 0.000000 1.000000 0.000000
vn 0.000000 1.000000 0.000000
vn 0.000000 -0.000000 -1.000000
vn 0.000000 0.000000 -1.000000
vn 0.000000 -0.000001 -1.000000
vn 0.000000 -1.000000 0.000000
vn 0.000000 -1.000000 -0.000000
vn 0.000000 -1.000000 -0.000000
vn 0.000000 -1.000000 0.000000
vn 0.000000 -1.000000 0.000000
vn 0.000000 -1.000000 0.000000
vn 0.000000 -1.000000 0.000000
vn 0.000000 -1.000000 0.000000
vn 0.000000 -1.000000 0.000000
vn 0.000000 -1.000000 -0.000000
vn 0.000000 -1.000000 0.000000
vn 0.000000 -1.000000 0.000000
vn 0.000000 -1.000000 -0.000000
vn 0.000000 -1.000000 -0.000000
vn 0.000000 -1.000000 -0.000000
vn 0.996346 0.000000 0.085407
vn 0.996346 0.000000 -0.085406
vn 0.996346 0.000000 -0.085406
vn 0.996346 0.000000 0.085407
vn 0.024615 0.000000 -0.999697
vn -0.024842 0.000000 -0.999691
vn -0.024842 0.000000 -0.999691
vn 0.024615 0.000000 -0.999697
vn -0.997127 0.000000 -0.075750
vn -0.995472 0.000000 0.095053
vn -0.995472 0.000000 0.095053
vn -0.997127 0.000000 -0.075750
vn -0.024453 -0.000000 0.999701
vn 0.024680 -0.000000 0.999695
vn 0.024680 -0.000000 0.999695
vn -0.024453 -0.000000 0.999701
vn 0.949241 0.000000 -0.314550
vn 0.949241 0.000000 -0.314550
vn 0.459791 0.000000 -0.888027
vn 0.459791 0.000000 -0.888027
vn 0.459789 -0.000000 0.888028
vn 0.459789 -0.000000 0.888028
vn 0.949241 0.000000 0.314551
vn 0.949241 0.000000 0.314551
vn -0.463127 0.000000 -0.886292
vn -0.463127 0.000000 -0.886292
vn -0.951802 0.000000 -0.306713
vn -0.951802 0.000000 -0.306713
vn -0.946607 0.000000 0.322388
vn -0.946607 0.000000 0.322388
vn -0.456442 -0.000000 0.889753
vn -0.456442 -0.000000 0.889753
vn 0.000000 -1.000000 0.000000
vn 0.000000 -1.000000 0.000000
vn 0.000000 -1.000000 0.000000
vn 0.000000 -1.000000 0.000000
vn 0.000000 -1.000000 -0.000000
vn 0.000000 -1.000000 -0.000000
vn 0.000000 -1.000000 -0.000000
vn 0.000000 -1.000000 -0.000000
vn 0.000000 -1.000000 -0.000000
vn 0.000000 -1.000000 -0.000000
vn 0.000000 -1.000000 -0.000000
vn 0.000000 -1.000000 -0.000000
vn 0.000000 -1.000000 -0.000000
vn 0.000000 -1.000000 -0.000000
vn 0.000000 -1.000000 -0.000000
vn 0.000000 -1.000000 -0.000000
vn 0.000000 -1.000000 0.000000
vn 0.000000 -1.000000 0.000000
vn 0.000000 -1.000000 0.000000
vn 0.000000 -1.000000 -0.000000
vn 0.000000 -1.000000 -0.000000
vn 0.000000 -1.000000 -0.000000
vn 0.000000 -1.000000 -0.000000
vn 0.000000 -1.000000 -0.000000
vn 0.000000 -1.000000 -0.000000
vn 0.000000 -1.000000 -0.000000
vn 0.000000 -1.000000 -0.000000
vn 0.000000 -1.000000 0.000000
vn 0.000000 -1.000000 0.000000
vn 0.996276 -0.000000 0.086220
vn 0.996276 0.000000 -0.086220
vn 0.996276 0.000000 -0.086220
vn 0.996276 -0.000000 0.086220
vn 0.030451 0.000000 -0.999536
vn -0.030451 0.000000 -0.999536
vn -0.030451 0.000000 -0.999536
vn 0.030451 0.000000 -0.999536
vn -0.996276 -0.000000 -0.086221
vn -0.996276 -0.000000 0.086220
vn -0.996276 -0.000000 0.086220
vn -0.996276 -0.000000 -0.086221
vn -0.030451 -0.000000 0.999536
vn 0.030451 -0.000000 0.999536
vn 0.030451 -0.000000 0.999536
vn -0.030451 -0.000000 0.999536
vn 0.949241 0.000000 -0.314551
vn 0.949241 0.000000 -0.314551
vn 0.459791 0.000000 -0.888027
vn 0.459791 0.000000 -0.888027
vn 0.459791 -0.000000 0.888027
vn 0.459791 -0.000000 0.888027
vn 0.949241 -0.000000 0.314551
vn 0.949241 -0.000000 0.314551
vn -0.459790 0.000000 -0.888028
vn -0.459790 0.000000 -0.888028
vn -0.949241 0.000000 -0.314549
vn -0.949241 0.000000 -0.314549
vn -0.949240 -0.000000 0.314552
vn -0.949240 -0.000000 0.314552
vn -0.459791 -0.000000 0.888027
vn -0.459791 -0.000000 0.888027
vn 0.000000 -1.000000 0.000000
vn 0.000000 -1.000000 0.000000
vn 0.000000 -1.000000 0.000000
vn 0.000000 -1.000000 0.000000
vn 0.000000 -1.000000 0.000000
vn 0.000000 -1.000000 0.000000
vn 0.000000 -1.000000 0.000000
vn 0.000000 -1.000000 0.000000
vn 0.000000 -1.000000 0.000000
vn 0.000000 -1.000000 0.000000
vn 0.000000 -1.000000 0.000000
vn 0.000000 -1.000000 0.000000
vn 0.000000 -1.000000 0.000000
vn 0.000000 -1.000000 0.000000
vn 0.000000 -1.000000 0.000000
vn 0.000000 -1.000000 0.000000
s 1
g pCube1
usemtl initialShadingGroup
f 1/1/1 7/10/2 8/12/3 2/2/4
f 6/9/5 5/7/6 4/5/7 3/6/8
f 8/12/3 7/10/2 5/7/6 6/9/5
f 6/8/5 3/3/8 10/14/9 9/13/10
s 2
f 11/15/11 1/1/12 2/2/13 12/17/14
s 3
f 13/18/15 12/17/16 2/2/17 8/11/18
f 14/19/19 13/18/15 8/11/18 6/8/20
s 4
f 15/20/21 14/19/22 6/8/23 9/13/24
s 5
f 16/21/25 15/20/26 9/13/27 10/14/28
s 6
f 3/3/29 17/22/30 16/21/31 10/14/32
f 18/23/33 17/22/30 3/3/29 4/55/34
s 7
f 11/16/35 20/24/36 7/25/37 1/4/38
f 20/24/36 19/54/39 23/35/40 22/26/41 31/36/42 30/37/43
f 19/54/39 5/56/44 37/39/45 36/30/46 24/34/47 23/35/40
f 5/56/44 7/25/37 44/41/48 43/32/49 38/38/50 37/39/45
f 7/25/37 20/24/36 30/37/43 29/28/51 45/40/52 44/41/48
s 9
f 34/29/53 31/36/54 22/26/55 26/43/56
s 10
f 25/27/57 24/34/58 36/30/59 40/44/60
s 11
f 39/31/61 38/38/62 43/32/63 47/45/64
s 12
f 46/33/65 45/40/66 29/28/67 32/42/68
s 9
f 22/26/55 21/46/69 27/47/70 26/43/56
s 10
f 21/46/71 24/34/58 25/27/57 27/47/72
s 12
f 29/28/67 28/48/73 33/49/74 32/42/68
s 9
f 28/48/75 31/36/54 34/29/53 33/49/76
s 10
f 36/30/59 35/50/77 41/51/78 40/44/60
s 11
f 35/50/79 38/38/62 39/31/61 41/51/80
f 43/32/63 42/52/81 48/53/82 47/45/64
s 12
f 42/52/83 45/40/66 46/33/65 48/53/84
s 7
f 23/35/40 24/34/47 21/46/85
f 23/35/40 21/46/85 22/26/41
f 30/37/43 31/36/42 28/48/86
f 30/37/43 28/48/86 29/28/51
f 37/39/45 38/38/50 35/50/87
f 37/39/45 35/50/87 36/30/46
f 44/41/48 45/40/52 42/52/88
f 44/41/48 42/52/88 43/32/49
s off
f 46/33/89 32/42/90 33/49/91 34/29/92 26/43/93 27/47/94 25/27/95 40/44/96 41/51/97 39/31/98 47/45/99 48/53/100
s 7
f 19/54/39 18/23/101 51/66/102 50/57/103 59/67/104 58/68/105
f 18/23/101 4/55/106 65/70/107 64/61/108 52/65/109 51/66/102
f 4/55/106 5/56/44 72/72/110 71/63/111 66/69/112 65/70/107
f 5/56/44 19/54/39 58/68/105 57/59/113 73/71/114 72/72/110
s 14
f 62/60/115 59/67/116 50/57/117 54/74/118
s 15
f 53/58/119 52/65/120 64/61/121 68/75/122
s 16
f 67/62/123 66/69/124 71/63/125 75/76/126
s 17
f 74/64/127 73/71/128 57/59/129 60/73/130
s 14
f 50/57/117 49/77/131 55/78/132 54/74/118
s 15
f 49/77/133 52/65/120 53/58/119 55/78/134
s 17
f 57/59/129 56/79/135 61/80/136 60/73/130
s 14
f 56/79/137 59/67/116 62/60/115 61/80/138
s 15
f 64/61/121 63/81/139 69/82/140 68/75/122
s 16
f 63/81/141 66/69/124 67/62/123 69/82/142
f 71/63/125 70/83/143 76/84/144 75/76/126
s 17
f 70/83/145 73/71/128 74/64/127 76/84/146
s 7
f 51/66/102 52/65/109 49/77/147
f 51/66/102 49/77/147 50/57/103
f 58/68/105 59/67/104 56/79/148
f 58/68/105 56/79/148 57/59/113
f 65/70/107 66/69/112 63/81/149
f 65/70/107 63/81/149 64/61/108
f 72/72/110 73/71/114 70/83/150
f 72/72/110 70/83/150 71/63/111
s off
f 74/64/151 60/73/152 61/80/153 62/60/154 54/74/155 55/78/156 53/58/157 68/75/158 69/82/159 67/62/160 75/76/161 76/84/162
s 18
f 77/85/163 78/88/164 84/87/165 83/86/166
f 82/89/167 79/92/168 80/91/169 81/90/170
f 84/87/165 82/89/167 81/90/170 83/86/166
f 82/93/167 85/96/171 86/95/172 79/94/168
s 2
f 11/97/11 12/98/14 78/88/173 77/85/174
s 3
f 13/99/15 84/100/175 78/88/176 12/98/16
f 14/101/19 82/93/177 84/100/175 13/99/15
s 4
f 15/102/21 85/96/178 82/93/179 14/101/22
s 5
f 16/103/25 86/95/180 85/96/181 15/102/26
s 6
f 79/94/182 86/95/183 16/103/31 17/104/30
f 18/105/33 80/106/184 79/94/182 17/104/30
s 7
f 11/107/35 77/110/185 83/109/186 20/108/36
f 20/108/36 96/115/187 97/114/188 88/113/189 89/112/190 19/111/39
f 19/111/39 89/112/190 90/119/191 102/118/192 103/117/193 81/116/194
f 81/116/194 103/117/193 104/122/195 109/121/196 110/120/197 83/109/186
f 83/109/186 110/120/197 111/124/198 95/123/199 96/115/187 20/108/36
s 20
f 100/125/200 92/126/201 88/113/202 97/114/203
s 21
f 91/127/204 106/128/205 102/118/206 90/119/207
s 22
f 105/129/208 113/130/209 109/121/210 104/122/211
s 23
f 112/131/212 98/132/213 95/123/214 111/124/215
s 20
f 88/113/202 92/126/201 93/134/216 87/133/217
s 21
f 87/133/218 93/134/219 91/127/204 90/119/207
s 23
f 95/123/214 98/132/213 99/136/220 94/135/221
s 20
f 94/135/222 99/136/223 100/125/200 97/114/203
s 21
f 102/118/206 106/128/205 107/138/224 101/137/225
s 22
f 101/137/226 107/138/227 105/129/208 104/122/211
f 109/121/210 113/130/209 114/140/228 108/139/229
s 23
f 108/139/230 114/140/231 112/131/212 111/124/215
s 7
f 89/112/190 87/133/232 90/119/191
f 89/112/190 88/113/189 87/133/232
f 96/115/187 94/135/233 97/114/188
f 96/115/187 95/123/199 94/135/233
f 103/117/193 101/137/234 104/122/195
f 103/117/193 102/118/192 101/137/234
f 110/120/197 108/139/235 111/124/198
f 110/120/197 109/121/196 108/139/235
s off
f 112/131/236 114/140/237 113/130/238 105/129/239 107/138/240 106/128/241 91/127/242 93/134/243 92/126/244 100/125/245 99/136/246 98/132/247
s 7
f 19/111/39 124/144/248 125/143/249 116/142/250 117/141/251 18/105/101
f 18/105/101 117/141/251 118/147/252 130/146/253 131/145/254 80/106/255
f 80/106/255 131/145/254 132/150/256 137/149/257 138/148/258 81/116/194
f 81/116/194 138/148/258 139/152/259 123/151/260 124/144/248 19/111/39
s 24
f 128/153/261 120/154/262 116/142/263 125/143/264
s 25
f 119/155/265 134/156/266 130/146/267 118/147/268
s 26
f 133/157/269 141/158/270 137/149/271 132/150/272
s 27
f 140/159/273 126/160/274 123/151/275 139/152/276
s 24
f 116/142/263 120/154/262 121/162/277 115/161/278
s 25
f 115/161/279 121/162/280 119/155/265 118/147/268
s 27
f 123/151/275 126/160/274 127/164/281 122/163/282
s 24
f 122/163/283 127/164/284 128/153/261 125/143/264
s 25
f 130/146/267 134/156/266 135/166/285 129/165/286
s 26
f 129/165/287 135/166/288 133/157/269 132/150/272
f 137/149/271 141/158/270 142/168/289 136/167/290
s 27
f 136/167/291 142/168/292 140/159/273 139/152/276
s 7
f 117/141/251 115/161/293 118/147/252
f 117/141/251 116/142/250 115/161/293
f 124/144/248 122/163/294 125/143/249
f 124/144/248 123/151/260 122/163/294
f 131/145/254 129/165/295 132/150/256
f 131/145/254 130/146/253 129/165/295
f 138/148/258 136/167/296 139/152/259
f 138/148/258 137/149/257 136/167/296
s off
f 140/159/297 142/168/298 141/158/299 133/157/300 135/166/301 134/156/302 119/155/303 121/162/304 120/154/305 128/153/306 127/164/307 126/160/308
