# author: headus 3D tools
#  using: ply2obj v1.11
#   from: uvlayout v2.10.03
# 20 vertices
v 7.9364929 0.5077240 1.0356070
v 8.1864929 0.5077240 1.0356070
v 7.9364929 5.5077244 1.0356070
v 8.1864929 5.5077244 1.0356070
v 7.9364929 5.5077244 -1.9643930
v 8.1864929 5.5077244 -1.9643930
v 7.9364929 0.5077240 -1.9643930
v 8.1864929 0.5077240 -1.9643930
v 7.9364929 5.5077244 -0.9643934
v 7.9364929 0.5077240 -0.9643934
v 8.1864929 0.5077240 -0.9643934
v 8.1864929 5.5077244 -0.9643934
v 7.9364929 5.5077244 0.0356068
v 7.9364929 0.5077240 0.0356068
v 8.1864929 0.5077240 0.0356068
v 8.1864929 5.5077244 0.0356068
v 8.0397071 0.5737959 -0.6610630
v 8.0397071 0.5737959 -0.2677241
v 8.0397071 5.4416512 -0.2677241
v 8.0397071 5.4416512 -0.6610630
# 52 normals
vn 0.000000 0.000000 1.000000
vn 0.000000 0.000000 1.000000
vn 0.000000 0.000000 1.000000
vn 0.000000 0.000000 1.000000
vn 0.000000 1.000000 0.000000
vn 0.000000 1.000000 0.000000
vn 0.000000 1.000000 0.000000
vn 0.000000 1.000000 0.000000
vn 0.000000 0.000000 -1.000000
vn 0.000000 0.000000 -1.000000
vn 0.000000 0.000000 -1.000000
vn 0.000000 0.000000 -1.000000
vn 0.000000 -1.000000 0.000000
vn 0.000000 -1.000000 0.000000
vn 0.000000 -1.000000 0.000000
vn 0.000000 -1.000000 0.000000
vn 1.000000 0.000000 0.000000
vn 1.000000 0.000000 0.000000
vn 1.000000 0.000000 0.000000
vn 1.000000 0.000000 0.000000
vn -0.997009 0.000000 -0.076878
vn -1.000000 0.000000 0.000000
vn -1.000000 0.000000 0.000000
vn -0.997009 0.000000 -0.076878
vn -1.000000 0.000000 0.000000
vn -0.997009 0.000000 0.076878
vn -0.997009 0.000000 0.076878
vn -1.000000 0.000000 0.000000
vn 0.000000 -1.000000 0.000000
vn 0.000000 -1.000000 0.000000
vn 0.000000 -1.000000 0.000000
vn 0.000000 -1.000000 0.000000
vn 1.000000 0.000000 0.000000
vn 1.000000 0.000000 0.000000
vn 1.000000 0.000000 0.000000
vn 1.000000 0.000000 0.000000
vn 0.000000 1.000000 0.000000
vn 0.000000 1.000000 0.000000
vn 0.000000 1.000000 0.000000
vn 0.000000 1.000000 0.000000
vn -0.988799 0.000000 0.149149
vn -0.988799 0.000000 -0.149149
vn -0.988799 0.000000 -0.149149
vn -0.988799 0.000000 0.149149
vn -0.539065 0.842153 0.000000
vn -0.539065 0.842153 0.000000
vn -0.539065 0.842153 0.000000
vn -0.539065 0.842153 0.000000
vn -0.539065 -0.842153 0.000000
vn -0.539065 -0.842153 0.000000
vn -0.539065 -0.842153 0.000000
vn -0.539065 -0.842153 0.000000
# 40 uv coords
vt 0.039416 0.190100
vt 0.792861 0.190097
vt 0.039418 0.340791
vt 0.792862 0.340788
vt 0.755185 0.847959
vt 0.755185 0.998649
vt 0.001737 0.998649
vt 0.001737 0.847959
vt 0.755185 0.693310
vt 0.755185 0.844000
vt 0.001737 0.844000
vt 0.001737 0.693310
vt 0.772204 0.536022
vt 0.772247 0.686711
vt 0.753767 0.641010
vt 0.753751 0.581736
vt 0.763737 0.689291
vt 0.010289 0.689497
vt 0.020231 0.641213
vt 0.001775 0.686927
vt 0.001737 0.536238
vt 0.020216 0.581942
vt 0.010245 0.533663
vt 0.763693 0.533450
vt 0.039415 0.491481
vt 0.001739 0.491480
vt 0.001747 0.340790
vt 0.830543 0.491473
vt 0.792867 0.491478
vt 0.830533 0.340785
vt 0.039418 0.529153
vt 0.792866 0.529151
vt 0.001746 0.190102
vt 0.830531 0.190097
vt 0.001737 0.039413
vt 0.039413 0.039410
vt 0.792862 0.001737
vt 0.792864 0.039408
vt 0.039414 0.001737
vt 0.830540 0.039409
# 18 polygons
usemtl initialShadingGroup
s off
g tal_wall
f 1/31/1 2/25/2 4/29/3 3/32/4
s 1
f 3/28/5 4/29/6 16/4/7 13/30/8
s off
f 5/37/9 6/38/10 8/36/11 7/39/12
s 2
f 14/27/13 15/3/14 2/25/15 1/26/16
s 3
f 2/25/17 15/3/18 16/4/19 4/29/20
s 4
f 14/5/21 1/6/22 3/7/23 13/8/24
f 7/9/25 10/10/26 9/11/27 5/12/28
s 2
f 7/35/29 8/36/30 11/1/31 10/33/32
s 3
f 12/2/33 11/1/34 8/36/35 6/38/36
s 1
f 9/34/37 12/2/38 6/38/39 5/40/40
s 4
f 17/16/41 18/15/42 19/19/43 20/22/44
s 2
f 10/33/32 11/1/31 15/3/14 14/27/13
s 3
f 16/4/19 15/3/18 11/1/34 12/2/33
s 1
f 13/30/8 16/4/7 12/2/38 9/34/37
s off
f 10/13/45 14/14/46 18/15/47 17/16/48
s 4
f 14/17/21 13/18/24 19/19/43 18/15/42
s off
f 13/20/49 9/21/50 20/22/51 19/19/52
s 4
f 9/23/27 10/24/26 17/16/41 20/22/44
# h3dt: 20 40 52 18
