# author: headus 3D tools
#  using: ply2obj v1.11
#   from: uvlayout v2.10.03
# 55 vertices
v 9.1421642 -4.4786239 14.6433725
v 9.1421642 -4.2358261 14.5783148
v 6.3377180 -4.4786239 14.6433725
v 6.3377180 -4.2358261 14.5783148
v 6.3377180 -5.2550812 11.7455949
v 6.3377180 -5.0122819 11.6805371
v 9.1421642 -5.2550812 11.7455949
v 9.1421642 -5.0122819 11.6805371
v 12.2301484 -6.9765699 11.6976091
v 12.3558304 -6.7588831 11.6976091
v 9.1990585 -5.2265702 11.6976091
v 9.3247413 -5.0088830 11.6976091
v 9.1990585 -5.2265702 8.6976085
v 9.3247413 -5.0088830 8.6976085
v 12.2301484 -6.9765699 8.6976085
v 12.3558304 -6.7588831 8.6976085
v 12.3170024 -6.8355055 11.7057483
v 12.3170024 -6.8355055 11.9571123
v 9.1480483 -6.8355055 11.7057483
v 9.1480483 -6.8355055 11.9571123
v 9.2938289 -6.8355055 11.7057483
v 9.2938289 -6.8355055 11.9571123
v 9.3423747 -5.2609310 11.6976091
v 9.3423747 -5.0095668 11.6976091
v 6.3423736 -5.2609310 11.6976091
v 6.3423736 -5.0095668 11.6976091
v 6.3423736 -5.2609310 8.6976085
v 6.3423736 -5.0095668 8.6976085
v 9.3423747 -5.2609310 8.6976085
v 9.3423747 -5.0095668 8.6976085
v 9.1482171 -6.7642465 14.5803862
v 9.2992276 -6.7642465 14.5803862
v 9.1482171 -6.7642465 11.9593867
v 9.2992276 -6.7642465 11.9593867
v 9.1480483 -4.7362150 11.7057483
v 9.1847018 -4.6992402 11.7424037
v 9.1844892 -4.6992431 11.9571123
v 9.1480483 -4.7361088 11.9571123
v 9.2840366 -4.7347450 11.7057483
v 9.2938279 -4.6979742 11.7424025
v 12.3170024 -6.4778457 11.7424025
v 12.3170024 -6.5203801 11.7057483
v 12.3170024 -6.5203801 11.9571123
v 12.3170024 -6.4778457 11.9204577
v 9.2938279 -4.7405100 11.9571123
v 9.2938279 -4.6979742 11.9204577
v 9.2679109 -4.6982751 11.9571123
v 9.1482171 -3.9881711 14.5803862
v 9.1848716 -3.9500420 14.5803862
v 9.1482171 -4.7391691 11.9593867
v 9.1848716 -4.7010398 11.9593867
v 9.2625732 -3.9500420 14.5803862
v 9.2992276 -3.9881711 14.5803862
v 9.2992276 -4.7391691 11.9593867
v 9.2625732 -4.7010398 11.9593867
# 162 normals
vn 0.000000 0.258774 0.965849
vn 0.000000 0.258774 0.965849
vn 0.000000 0.258774 0.965849
vn 0.000000 0.258774 0.965849
vn -1.000000 0.000000 0.000000
vn -1.000000 0.000000 0.000000
vn -1.000000 0.000000 0.000000
vn -1.000000 0.000000 0.000000
vn 0.000000 -0.258774 -0.965849
vn 0.000000 -0.258774 -0.965849
vn 0.000000 -0.258774 -0.965849
vn 0.000000 -0.258774 -0.965849
vn 1.000000 0.000000 0.000000
vn 1.000000 0.000000 0.000000
vn 1.000000 0.000000 0.000000
vn 1.000000 0.000000 0.000000
vn 0.000000 0.965849 -0.258774
vn 0.000000 0.965849 -0.258774
vn 0.000000 0.965849 -0.258774
vn 0.000000 0.965849 -0.258774
vn 0.000000 -0.965849 0.258774
vn 0.000000 -0.965849 0.258774
vn 0.000000 -0.965849 0.258774
vn 0.000000 -0.965849 0.258774
vn 0.000000 0.000000 1.000000
vn 0.000000 0.000000 1.000000
vn 0.000000 0.000000 1.000000
vn 0.000000 0.000000 1.000000
vn -0.866020 0.499969 0.000000
vn -0.866020 0.499969 0.000000
vn -0.866020 0.499969 0.000000
vn -0.866020 0.499969 0.000000
vn 0.000000 0.000000 -1.000000
vn 0.000000 0.000000 -1.000000
vn 0.000000 0.000000 -1.000000
vn 0.000000 0.000000 -1.000000
vn 0.866020 -0.499969 0.000000
vn 0.866020 -0.499969 0.000000
vn 0.866020 -0.499969 0.000000
vn 0.866020 -0.499969 0.000000
vn 0.500000 0.866020 0.000000
vn 0.500000 0.866020 0.000000
vn 0.500000 0.866020 0.000000
vn 0.500000 0.866020 0.000000
vn -0.500000 -0.866020 0.000000
vn -0.500000 -0.866020 0.000000
vn -0.500000 -0.866020 0.000000
vn -0.500000 -0.866020 0.000000
vn 0.000000 -1.000000 0.000000
vn 0.000000 -1.000000 0.000000
vn 0.000000 -1.000000 0.000000
vn 0.000000 -1.000000 0.000000
vn 0.000000 0.000000 1.000000
vn 0.000000 0.000000 1.000000
vn 0.000000 0.000000 1.000000
vn 0.000000 0.000000 1.000000
vn 0.000000 0.000000 1.000000
vn 0.000000 0.000000 1.000000
vn 0.000000 0.000000 1.000000
vn 0.000000 0.000000 1.000000
vn 0.000000 -1.000000 0.000000
vn 0.000000 -1.000000 0.000000
vn 0.000000 0.000000 1.000000
vn 0.000000 0.000000 1.000000
vn 0.000000 0.000000 1.000000
vn 0.000000 0.000000 1.000000
vn -1.000000 0.000000 0.000000
vn -1.000000 0.000000 0.000000
vn -1.000000 0.000000 0.000000
vn -1.000000 0.000000 0.000000
vn 0.000000 0.000000 -1.000000
vn 0.000000 0.000000 -1.000000
vn 0.000000 0.000000 -1.000000
vn 0.000000 0.000000 -1.000000
vn 1.000000 0.000000 0.000000
vn 1.000000 0.000000 0.000000
vn 1.000000 0.000000 0.000000
vn 1.000000 0.000000 0.000000
vn 0.000000 1.000000 0.000000
vn 0.000000 1.000000 0.000000
vn 0.000000 1.000000 0.000000
vn 0.000000 1.000000 0.000000
vn 0.000000 -1.000000 0.000000
vn 0.000000 -1.000000 0.000000
vn 0.000000 -1.000000 0.000000
vn 0.000000 -1.000000 0.000000
vn 0.000000 0.000000 1.000000
vn 0.000000 0.000000 1.000000
vn 0.000000 0.000000 1.000000
vn 0.000000 0.000000 1.000000
vn 0.000000 0.000000 1.000000
vn 0.000000 0.000000 1.000000
vn 0.000000 0.961240 -0.275377
vn 0.000000 0.961240 -0.275377
vn 0.000000 0.961240 -0.275377
vn 0.000000 0.961240 -0.275377
vn 0.000000 -1.000000 0.000000
vn 0.000000 -1.000000 0.000000
vn 0.000000 -1.000000 0.000000
vn 0.000000 -1.000000 0.000000
vn 1.000000 0.000000 0.000000
vn 1.000000 0.000000 0.000000
vn 1.000000 0.000000 0.000000
vn 1.000000 0.000000 0.000000
vn -1.000000 0.000000 0.000000
vn -1.000000 0.000000 0.000000
vn -1.000000 0.000000 0.000000
vn -1.000000 0.000000 0.000000
vn 1.000000 0.000000 0.000000
vn 1.000000 0.000000 0.000000
vn 1.000000 0.000000 0.000000
vn 1.000000 0.000000 0.000000
vn 1.000000 0.000000 0.000000
vn 1.000000 0.000000 0.000000
vn 0.000000 0.000000 -1.000000
vn 0.000000 0.000000 -1.000000
vn 0.000000 0.000000 -1.000000
vn 0.000000 0.000000 -1.000000
vn 0.000000 0.000000 -1.000000
vn 0.000000 0.000000 -1.000000
vn -0.007813 0.707410 -0.706678
vn -0.007813 0.707410 -0.706678
vn 0.347159 0.614082 -0.708753
vn 0.347159 0.614082 -0.708753
vn -0.710554 0.703534 -0.000397
vn -0.710554 0.703534 -0.000397
vn -0.710554 0.703534 -0.000397
vn -0.710554 0.703534 -0.000397
vn 0.358726 0.609321 -0.707013
vn 0.358726 0.609321 -0.707013
vn 0.358726 0.609321 0.707044
vn 0.358726 0.609321 0.707044
vn 0.360740 0.608771 0.706433
vn 0.359794 0.609076 0.706800
vn -0.707044 0.679668 -0.194745
vn -0.707044 0.679668 -0.194745
vn -0.707044 0.679668 -0.194745
vn -0.707044 0.679668 -0.194745
vn 0.707044 0.679668 -0.194745
vn 0.707044 0.679668 -0.194745
vn 0.707044 0.679668 -0.194745
vn 0.707044 0.679668 -0.194745
vn -1.000000 0.000000 0.000000
vn -1.000000 0.000000 0.000000
vn -1.000000 0.000000 0.000000
vn -1.000000 0.000000 0.000000
vn 0.507325 0.861655 0.000000
vn 0.507325 0.861655 0.000000
vn 0.507325 0.861655 0.000000
vn 0.507325 0.861655 0.000000
vn 0.000000 0.000000 -1.000000
vn 0.000000 0.000000 -1.000000
vn 0.000000 0.000000 -1.000000
vn 0.000000 0.000000 -1.000000
vn 0.000000 0.000000 -1.000000
vn 0.000000 0.000000 -1.000000
vn -0.011536 0.999908 0.000000
vn -0.011536 0.999908 0.000000
vn -0.011536 0.999908 0.000000
vn -0.011536 0.999908 0.000000
vn -0.011536 0.999908 0.000000
vn 0.728499 0.447110 0.518800
# 109 uv coords
vt 0.264332 0.197992
vt 0.365974 0.010515
vt 3.119543 -0.017761
vt 0.356403 0.011383
vt 0.355476 0.032272
vt 0.357088 0.027375
vt 0.359579 0.030366
vt 0.005348 0.506057
vt 0.005348 0.235294
vt 0.321238 0.235294
vt 0.321238 0.506057
vt 0.343920 0.696486
vt 0.366612 0.696470
vt 0.366807 0.967233
vt 0.344126 0.967250
vt 0.344145 0.989935
vt 0.028254 0.990193
vt 0.028235 0.967505
vt 0.005543 0.967523
vt 0.005348 0.696759
vt 0.028029 0.696743
vt 0.028010 0.674058
vt 0.343901 0.673797
vt 0.721925 0.661138
vt 0.721925 0.390374
vt 0.992689 0.390374
vt 0.992689 0.661138
vt 0.967252 0.967247
vt 0.967252 0.989934
vt 0.696488 0.989934
vt 0.696487 0.967249
vt 0.967250 0.696483
vt 0.989937 0.696483
vt 0.989938 0.967246
vt 0.673797 0.967249
vt 0.673804 0.696485
vt 0.696487 0.696486
vt 0.696485 0.673799
vt 0.967249 0.673797
vt 0.379679 0.965950
vt 0.379679 0.695187
vt 0.632793 0.695187
vt 0.632793 0.965950
vt 0.968320 0.028045
vt 0.991001 0.028027
vt 0.991219 0.298790
vt 0.968526 0.298813
vt 0.968546 0.321499
vt 0.715432 0.321684
vt 0.715412 0.298998
vt 0.692731 0.299022
vt 0.692513 0.028258
vt 0.715206 0.028240
vt 0.715183 0.005564
vt 0.968297 0.005348
vt 0.678361 0.283423
vt 0.678360 0.519980
vt 0.427807 0.519978
vt 0.495589 0.283423
vt 0.414608 0.269162
vt 0.414695 0.255529
vt 0.665239 0.257134
vt 0.668664 0.260461
vt 0.668618 0.267474
vt 0.665156 0.270760
vt 0.402579 0.018892
vt 0.416212 0.018976
vt 0.401069 0.255444
vt 0.599068 0.006516
vt 0.602489 0.009846
vt 0.602443 0.016859
vt 0.598986 0.020145
vt 0.416300 0.005348
vt 0.669987 0.256786
vt 0.603761 0.019789
vt 0.676725 0.254900
vt 0.610531 0.017894
vt 0.680967 0.252730
vt 0.614791 0.015719
vt 0.367879 0.494652
vt 0.641675 0.655705
vt 0.641686 0.684146
vt 0.368822 0.684255
vt 0.355657 0.684257
vt 0.355615 0.494787
vt 0.295733 0.215310
vt 0.275856 0.204358
vt 3.122135 -0.014672
vt 0.387148 0.049351
vt 0.368611 0.005348
vt 0.264906 0.224218
vt 0.253392 0.217865
vt 0.019038 0.030672
vt 0.023786 0.028899
vt 0.037871 0.036634
vt 0.038913 0.041596
vt 0.025234 0.066523
vt 0.005348 0.055600
vt 0.040622 0.036862
vt 0.014300 0.086407
vt 0.040156 0.020785
vt 0.356055 0.006777
vt 0.038145 0.016153
vt 0.367291 0.038405
vt 0.379233 0.025405
vt 3.120777 -0.017623
vt 0.375102 0.027601
vt 0.367157 0.030030
vt 0.366026 0.033911
# 41 polygons
usemtl initialShadingGroup
s off
g floor_15
f 1/47/1 2/48/2 4/49/3 3/50/4
f 3/50/5 4/51/6 6/52/7 5/53/8
f 5/53/9 6/54/10 8/55/11 7/44/12
f 7/44/13 8/45/14 2/46/15 1/47/16
f 2/40/17 8/41/18 6/42/19 4/43/20
f 7/44/21 1/47/22 3/50/23 5/53/24
f 9/15/25 10/16/26 12/17/27 11/18/28
f 11/18/29 12/19/30 14/20/31 13/21/32
f 13/21/33 14/22/34 16/23/35 15/12/36
f 15/12/37 16/13/38 10/14/39 9/15/40
f 10/8/41 16/9/42 14/10/43 12/11/44
f 15/12/45 9/15/46 11/18/47 13/21/48
s 1
f 17/100/49 18/97/50 22/1/51 21/92/52
s 2
f 18/97/53 43/96/54 45/5/55 22/1/56
f 22/1/56 45/5/55 47/7/57 37/109/58 38/104/59 20/87/60
s 1
f 21/92/52 22/1/51 20/87/61 19/91/62
s off
f 23/28/63 24/29/64 26/30/65 25/31/66
f 25/31/67 26/35/68 28/36/69 27/37/70
f 27/37/71 28/38/72 30/39/73 29/32/74
f 29/32/75 30/33/76 24/34/77 23/28/78
f 24/24/79 30/25/80 28/26/81 26/27/82
f 29/32/83 23/28/84 25/31/85 27/37/86
f 31/60/87 32/61/88 53/62/89 52/63/90 49/64/91 48/65/92
f 51/77/93 49/76/94 52/74/95 55/75/96
f 33/66/97 34/67/98 32/61/99 31/68/100
f 32/61/101 34/67/102 54/72/103 53/62/104
f 33/56/105 31/57/106 48/58/107 50/59/108
f 42/93/109 41/94/110 44/95/111 43/96/112 18/97/113 17/98/114
f 50/69/115 51/70/116 55/71/117 54/72/118 34/67/119 33/73/120
s 3
f 35/90/121 36/2/122 40/4/123 39/102/124
s off
f 36/2/125 35/90/126 38/105/127 37/107/128
s 3
f 39/102/124 40/4/123 41/101/129 42/103/130
s 4
f 43/96/131 44/99/132 46/6/133 45/5/134
s off
f 48/78/135 49/76/136 51/77/137 50/79/138
f 52/74/139 53/62/140 54/72/141 55/75/142
f 19/86/143 20/87/144 38/104/145 35/89/146
f 40/4/147 46/6/148 44/99/149 41/101/150
s 5
f 39/80/151 42/81/152 17/82/153 21/83/154
f 39/80/151 21/83/154 19/84/155 35/85/156
s off
f 36/2/157 37/108/158 47/7/159 46/6/160 40/4/161
s 4
f 45/5/134 46/6/133 47/7/162
# h3dt: 55 109 162 41
