# author: headus 3D tools
#  using: ply2obj v1.11
#   from: uvlayout v2.10.03
# 62 vertices
v 3.6902201 -0.3925620 3.1609831
v 4.2016978 0.3707110 3.6394601
v 3.4965639 0.5998220 3.6394601
v 2.8270819 -0.1892890 3.6394601
v 3.4247291 -0.7891110 3.6394601
v 4.2016968 -0.3707110 3.6394601
v 4.3221488 -0.0000000 4.2701513
v 3.8863520 0.5998220 4.2701513
v 2.9475329 0.1814220 4.2701513
v 3.1812191 -0.3707110 4.2701513
v 3.8863520 -0.5998219 4.2701513
v 3.6914579 -0.0000000 4.6599389
v 3.8093500 0.1492928 3.2662940
v 3.8768129 0.5704650 3.5840950
v 4.2238168 0.0146250 3.2662940
v 4.0561828 0.2038360 3.3057790
v 3.3195090 -0.3925620 3.2662940
v 2.9725061 0.1632780 3.5840950
v 3.5775981 0.0483340 3.3057790
v 3.7375149 -0.7451278 3.2662940
v 2.9725061 -0.5418549 3.5840950
v 3.3439119 -0.6441689 3.3057790
v 4.2238168 -0.4211710 3.2662940
v 3.8049790 -0.7597539 3.5840950
v 3.9843480 -0.7996710 3.3057790
v 4.2912796 -0.0000000 3.5840950
v 4.3519649 -0.2032730 3.3057790
v 3.6914579 0.7051329 3.9548061
v 4.1059250 0.5704650 3.9548061
v 3.9054880 0.6587160 3.8225279
v 2.7871499 0.0286100 3.9548061
v 3.2769910 0.5704650 3.9548061
v 2.8974350 0.2178200 3.8225279
v 3.2769910 -0.5704650 3.9548061
v 2.7871499 -0.4071870 3.9548061
v 2.8974350 -0.5963980 3.8225279
v 4.2677770 -0.5704650 3.9548061
v 3.8533100 -0.7051330 3.9548061
v 4.0673389 -0.6587160 3.8225279
v 4.3620801 0.2178980 3.9548061
v 4.3620801 -0.2178980 3.9548061
v 4.3840728 -0.0000000 3.8225279
v 4.1767249 0.3525670 4.3255162
v 4.2517956 0.4071090 4.0870830
v 3.2724171 0.3811760 4.3255162
v 3.4774280 0.6587160 4.0870830
v 2.8579500 -0.1892890 4.3255162
v 2.7651570 -0.1892890 4.0870830
v 3.5061031 -0.5704650 4.3255162
v 3.4774280 -0.6587160 4.0870830
v 4.1767249 -0.3525670 4.3255162
v 4.2517956 -0.4071089 4.0870830
v 3.8060140 0.3525670 4.5546280
v 4.0621690 -0.0000000 4.5546280
v 4.0377659 0.2516069 4.5151430
v 3.1578610 0.0286100 4.5546280
v 3.3254941 0.2178200 4.5151430
v 3.3915470 -0.2178980 4.5546280
v 3.0297120 -0.1892890 4.5151430
v 3.8060140 -0.3525670 4.5546280
v 3.5591810 -0.4071089 4.5151430
v 4.0377659 -0.2516070 4.5151430
# 132 normals
vn 0.137917 0.102515 -0.985076
vn -0.059238 -0.017121 -0.998047
vn -0.043307 0.214063 -0.975768
vn 0.064304 0.197980 -0.978087
vn -0.192425 0.531008 -0.825185
vn -0.311054 0.710462 -0.631112
vn -0.027559 0.733535 -0.678905
vn -0.044406 0.606238 -0.793933
vn 0.539950 0.721754 -0.432888
vn 0.718763 0.584081 -0.376824
vn 0.824208 0.467283 -0.319630
vn 0.527345 0.645242 -0.552677
vn -0.244156 -0.022157 -0.969450
vn -0.264604 0.239211 -0.934200
vn -0.530672 0.074315 -0.844259
vn -0.726729 0.084569 -0.681591
vn -0.574590 0.243606 -0.781237
vn -0.452329 0.212659 -0.866050
vn -0.471831 0.637856 -0.608466
vn -0.308674 0.458677 -0.833120
vn 0.032320 -0.241195 -0.969847
vn -0.212110 -0.251450 -0.944302
vn -0.168681 -0.975371 -0.141885
vn -0.237991 -0.971129 -0.011994
vn -0.321675 -0.946835 -0.001923
vn -0.358664 -0.884759 -0.297381
vn -0.731490 -0.208478 -0.649087
vn -0.629433 -0.156931 -0.760941
vn 0.193768 -0.082006 -0.977538
vn 0.153604 -0.230696 -0.960783
vn 0.802570 -0.520509 0.291278
vn 0.866996 -0.498047 -0.015077
vn 0.751724 -0.649210 0.115699
vn 0.728713 -0.610419 0.310047
vn 0.069432 -0.996307 0.049167
vn -0.040988 -0.998382 -0.037203
vn 0.213667 0.000000 -0.976805
vn 0.916224 0.320454 -0.240035
vn 0.920985 0.345541 -0.179607
vn 0.945950 -0.314900 -0.077245
vn 0.911463 -0.330556 0.244583
vn 0.683941 0.688671 -0.240280
vn 0.542086 0.770494 -0.334981
vn -0.148477 0.959165 -0.240280
vn 0.014253 0.942074 -0.334981
vn 0.050266 0.912409 0.405939
vn 0.126656 0.840383 0.526918
vn 0.443631 0.863303 0.240280
vn 0.306079 0.942074 0.136971
vn -0.502899 0.816426 -0.283465
vn -0.577184 0.741989 -0.340811
vn -0.958127 0.155069 -0.240280
vn -0.891534 0.304676 -0.334981
vn -0.817677 0.533388 0.216047
vn -0.726210 0.564762 0.391778
vn -0.617256 0.728469 0.296924
vn -0.734878 0.664286 0.136208
vn -0.958127 -0.155069 -0.240280
vn -0.891534 -0.304676 -0.334981
vn -0.253952 -0.939480 0.229476
vn -0.287981 -0.943447 0.163706
vn -0.378472 -0.791674 0.479491
vn -0.391625 -0.761307 0.516603
vn -0.359366 -0.756821 0.545840
vn -0.261613 -0.784930 0.561558
vn 0.020479 -0.981108 0.192334
vn 0.163554 -0.978758 0.122871
vn 0.837728 -0.445492 -0.315693
vn 0.634072 -0.603247 -0.483581
vn 0.445401 -0.811481 0.378197
vn 0.234603 -0.838522 0.491699
vn 0.165782 -0.944058 0.284930
vn 0.299762 -0.922633 0.242599
vn 0.932003 -0.269365 -0.242172
vn 0.900385 -0.277422 -0.334981
vn 0.866325 0.437618 -0.240280
vn 0.900385 0.277422 -0.334981
vn 0.958127 0.155069 0.240280
vn 0.894403 0.000000 0.447201
vn 0.958127 -0.155069 0.240280
vn 0.990478 0.000000 0.136971
vn 0.801379 0.582158 -0.136971
vn 0.494049 0.708143 0.504242
vn 0.565312 0.753739 0.334981
vn 0.826161 0.250961 0.504242
vn 0.891534 0.304676 0.334981
vn -0.306079 0.942074 -0.136971
vn -0.530245 0.702435 0.474547
vn -0.545047 0.749283 0.375877
vn -0.204999 0.763383 0.612434
vn -0.133980 0.816273 0.561802
vn -0.990478 0.000000 -0.136971
vn -0.425288 -0.755478 0.498321
vn -0.521791 -0.688091 0.504059
vn -0.815968 0.282549 0.504242
vn -0.900385 0.277422 0.334981
vn -0.217268 -0.929897 0.296405
vn 0.015290 -0.871300 0.490295
vn -0.012299 -0.943417 0.331075
vn -0.520814 -0.688671 0.504242
vn -0.542086 -0.770494 0.334981
vn 0.958005 -0.256241 -0.128060
vn 0.826161 -0.250961 0.504242
vn 0.891534 -0.304676 0.334981
vn 0.497681 -0.636330 0.589239
vn 0.587072 -0.626564 0.512482
vn 0.744644 0.000000 0.667369
vn 0.731307 0.188274 0.655405
vn -0.033663 0.743270 0.668010
vn 0.405115 0.637337 0.655405
vn 0.050571 0.267381 0.962186
vn -0.005585 0.055576 0.998352
vn 0.263932 0.000000 0.964506
vn 0.259202 0.188274 0.947262
vn -0.230452 0.742050 0.629433
vn -0.602423 0.437618 0.667369
vn -0.480956 0.582158 0.655405
vn -0.172526 0.029268 0.984496
vn -0.167430 0.334951 0.927120
vn -0.702283 0.277422 0.655405
vn -0.399896 -0.695324 0.596991
vn -0.248245 -0.845541 0.472624
vn -0.142800 -0.212873 0.966551
vn -0.167460 -0.158701 0.972929
vn -0.480956 -0.582158 0.655405
vn 0.230025 -0.708143 0.667369
vn 0.046847 -0.753739 0.655405
vn 0.081517 -0.250961 0.964506
vn -0.098975 -0.304676 0.947262
vn 0.405115 -0.637337 0.655405
vn 0.731307 -0.188274 0.655405
vn 0.259202 -0.188274 0.947262
# 110 uv coords
vt 0.970667 0.255876
vt 0.895603 0.377448
vt 0.670675 0.377224
vt 0.368690 0.663382
vt 0.393557 0.836893
vt 0.965724 0.167655
vt 1.199701 0.295195
vt 1.056164 0.186779
vt 0.284921 0.181404
vt 0.144138 0.266071
vt 0.185751 0.114987
vt 0.957806 0.301505
vt 0.313308 0.298360
vt 0.339868 0.189470
vt 0.685415 0.289813
vt 0.540134 0.329534
vt 0.585070 0.265022
vt 0.767608 0.385252
vt 0.740328 0.307592
vt 0.437068 0.602731
vt 0.344237 0.574940
vt 0.399667 0.559614
vt 0.107713 0.307516
vt 0.385746 0.402198
vt 0.269817 0.388779
vt 0.310762 0.353430
vt 0.621486 0.452153
vt 0.525870 0.421516
vt 0.584555 0.405898
vt 0.701771 0.463884
vt 0.756072 0.444911
vt 0.312937 0.246658
vt 0.288836 0.589645
vt 0.509153 0.734417
vt 0.474816 0.643701
vt 0.231517 0.427937
vt 0.433407 0.436095
vt 1.106117 0.526644
vt 0.378440 0.752122
vt 0.302564 0.822508
vt 0.321790 0.762819
vt 0.534815 0.399250
vt 0.488784 0.791876
vt 0.456310 0.901952
vt 0.571123 0.444422
vt 0.354105 0.913522
vt 0.407122 0.938521
vt 0.302838 0.885138
vt 0.504987 0.542545
vt 0.533800 0.634928
vt 0.594514 0.766582
vt 0.322496 0.487085
vt 0.417367 0.502038
vt 0.626621 0.454659
vt 0.233016 0.300183
vt 0.247702 0.545572
vt 0.253449 0.918739
vt 0.503610 0.980182
vt 0.314125 0.993432
vt 0.410653 0.998094
vt 0.174145 0.406681
vt 0.215960 0.320015
vt 0.337197 0.483110
vt 0.245255 0.485852
vt 0.152792 0.497239
vt 0.426981 0.496453
vt 0.127146 0.364122
vt 0.516645 0.500382
vt 0.033647 0.379216
vt 0.001845 0.238811
vt 0.034738 0.149045
vt 1.047061 0.076320
vt 0.855443 0.417993
vt 1.086563 0.578282
vt 0.799676 0.486475
vt 0.733856 0.549083
vt 0.037932 0.057250
vt 0.945238 0.401051
vt 1.022984 0.138779
vt 0.857599 0.323647
vt 0.819066 0.214468
vt 0.140912 0.001845
vt 0.164966 0.057421
vt 0.791162 0.160778
vt 0.299311 0.091837
vt 0.657426 0.164226
vt 0.798531 0.310871
vt 0.783787 0.263754
vt 0.391511 0.109648
vt 1.021433 0.286885
vt 0.444353 0.324564
vt 0.414317 0.225478
vt 0.578666 0.204106
vt 0.529972 0.248821
vt 0.591334 0.551234
vt 0.642608 0.546636
vt 0.648659 0.485617
vt 0.623010 0.500661
vt 0.227963 0.360680
vt 0.187269 0.616113
vt 0.274511 0.648180
vt 0.285859 0.715005
vt 0.635470 0.848162
vt 0.586427 0.947891
vt 0.542912 0.907045
vt 0.580100 0.872711
vt 0.520861 0.847729
vt 0.533013 0.834447
vt 0.210114 0.835891
vt 0.218682 0.780643
# 60 polygons
usemtl initialShadingGroup
s 1
g pPlatonic2
f 15/88/1 1/86/2 13/84/3 16/81/4
s 2
f 13/83/5 3/71/6 14/77/7 16/82/8
s 3
f 14/78/9 2/73/10 15/87/11 16/80/12
s 1
f 13/83/3 1/85/2 17/9/13 19/11/14
s 4
f 17/9/15 4/62/16 18/10/17 19/11/18
s 2
f 18/10/19 3/71/6 13/83/5 19/11/20
s 1
f 17/9/13 1/85/2 20/89/21 22/14/22
s 5
f 20/89/23 5/92/24 21/13/25 22/14/26
s 4
f 21/13/27 4/62/16 17/9/15 22/14/28
s 1
f 20/93/21 1/86/2 23/15/29 25/17/30
s 6
f 23/15/31 6/3/32 24/16/33 25/17/34
s 5
f 24/16/35 5/91/24 20/94/23 25/17/36
s 1
f 23/15/29 1/86/2 15/88/1 27/19/37
s 3
f 15/87/11 2/73/10 26/18/38 27/19/39
s 6
f 26/18/40 6/3/32 23/15/31 27/19/41
s 3
f 29/21/42 2/52/10 14/53/9 30/22/43
s 2
f 14/53/7 3/49/6 28/20/44 30/22/45
s 7
f 28/20/46 8/4/47 29/21/48 30/22/49
s 2
f 32/70/50 3/71/6 18/10/19 33/23/51
s 4
f 18/10/17 4/62/16 31/67/52 33/23/53
s 8
f 31/67/54 9/69/55 32/70/56 33/23/57
s 4
f 35/25/58 4/62/16 21/13/27 36/26/59
s 5
f 21/13/25 5/91/24 34/24/60 36/26/61
s 9
f 34/24/62 10/63/63 35/25/64 36/26/65
s 5
f 38/28/66 5/91/24 24/16/35 39/29/67
s 6
f 24/16/33 6/3/32 37/27/68 39/29/69
s 10
f 37/27/70 11/68/71 38/28/72 39/29/73
s 6
f 41/30/74 6/3/32 26/18/40 42/31/75
s 3
f 26/18/38 2/73/10 40/75/76 42/31/77
s 11
f 40/75/78 7/76/79 41/30/80 42/31/81
s 3
f 40/56/76 2/52/10 29/21/42 44/33/82
s 7
f 29/21/48 8/4/47 43/101/83 44/33/84
s 11
f 43/101/85 7/100/79 40/56/78 44/33/86
s 2
f 28/20/44 3/49/6 32/50/50 46/35/87
s 8
f 32/50/56 9/51/55 45/34/88 46/35/89
s 7
f 45/34/90 8/4/47 28/20/46 46/35/91
s 4
f 31/61/52 4/62/16 35/25/58 48/36/92
s 9
f 35/25/64 10/63/63 47/64/93 48/36/94
s 8
f 47/64/95 9/65/55 31/61/54 48/36/96
s 5
f 34/24/60 5/91/24 38/28/66 50/37/97
s 10
f 38/28/72 11/68/71 49/66/98 50/37/99
s 9
f 49/66/100 10/63/63 34/24/62 50/37/101
s 6
f 37/27/68 6/3/32 41/30/74 52/97/102
s 11
f 41/30/80 7/76/79 51/96/103 52/97/104
s 10
f 51/95/105 11/68/71 37/27/70 52/98/106
s 11
f 54/40/107 7/110/79 43/102/85 55/41/108
s 7
f 43/102/83 8/4/47 53/39/109 55/41/110
s 12
f 53/39/111 12/5/112 54/40/113 55/41/114
s 7
f 53/39/109 8/4/47 45/34/90 57/43/115
s 8
f 45/34/88 9/51/55 56/108/116 57/43/117
s 12
f 56/107/118 12/5/112 53/39/111 57/43/119
s 8
f 56/108/116 9/51/55 47/103/95 59/106/120
s 9
f 47/104/93 10/58/63 58/44/121 59/105/122
s 12
f 58/44/123 12/5/112 56/107/118 59/105/124
s 9
f 58/44/121 10/58/63 49/60/100 61/47/125
s 10
f 49/60/98 11/59/71 60/46/126 61/47/127
s 12
f 60/46/128 12/5/112 58/44/123 61/47/129
s 10
f 60/46/126 11/59/71 51/57/105 62/48/130
s 11
f 51/57/103 7/109/79 54/40/107 62/48/131
s 12
f 54/40/113 12/5/112 60/46/128 62/48/132
# h3dt: 62 110 132 60
