# author: headus 3D tools
#  using: ply2obj v1.11
#   from: uvlayout v2.10.03
# 40 vertices
v 5.9579072 1.5255210 20.8218174
v 5.9579072 -1.7658132 20.5821095
v 6.1110600 1.5255210 20.8218174
v 6.1110600 -1.7658132 20.5821095
v 6.1110600 1.5255210 17.6079940
v 6.1110600 -1.7658132 17.9030838
v 5.9579072 1.5255210 17.6079940
v 5.9579072 -1.7658132 17.9030838
v 6.1110600 -0.7210566 18.6792698
v 6.1110600 1.5255210 18.6792698
v 5.9579072 1.5255210 18.6792698
v 5.9579072 -0.7210566 18.6792698
v 6.1110600 -0.7210566 19.7505436
v 6.1110600 1.5255210 19.7505436
v 5.9579072 1.5255210 19.7505436
v 5.9579072 -0.7210566 19.7505436
v 5.9579072 1.5255210 20.4647274
v 6.1110600 1.5255210 20.4647274
v 6.1110600 -1.3173260 20.4647274
v 5.9579072 -1.3173260 20.4647274
v 5.9579072 1.5255210 20.1076355
v 6.1110600 1.5255210 20.1076355
v 6.1110600 -0.8913406 20.1076355
v 5.9579072 -0.8913406 20.1076355
v 5.9579072 1.5255210 18.3221780
v 6.1110600 1.5255210 18.3221780
v 6.1110600 -0.9464620 18.3221780
v 5.9579072 -0.9464620 18.3221780
v 5.9579072 1.5255210 17.9650858
v 6.1110600 1.5255210 17.9650858
v 6.1110600 -1.4175612 17.9611548
v 5.9579072 -1.4175612 17.9611548
v 6.1110600 1.5255210 19.0363618
v 5.9579072 1.5255210 19.0363618
v 5.9579072 -0.6322260 19.0363618
v 6.1110600 -0.6322260 19.0363618
v 6.1110600 1.5255210 19.3934516
v 5.9579072 1.5255210 19.3934516
v 5.9579072 -0.6269992 19.3934516
v 6.1110600 -0.6269992 19.3934516
# 88 normals
vn 0.000000 -0.072606 0.997284
vn 0.000000 -0.072606 0.997284
vn 0.000000 -0.072606 0.997284
vn 0.000000 -0.072606 0.997284
vn 1.000000 0.000000 0.000000
vn 1.000000 0.000000 0.000000
vn 1.000000 0.000000 0.000000
vn 1.000000 0.000000 0.000000
vn 0.000000 -0.089208 -0.996002
vn 0.000000 -0.089208 -0.996002
vn 0.000000 -0.089208 -0.996002
vn 0.000000 -0.089208 -0.996002
vn -1.000000 0.000000 0.000000
vn -1.000000 0.000000 0.000000
vn -1.000000 0.000000 0.000000
vn -1.000000 0.000000 0.000000
vn 0.000000 -0.767564 -0.640817
vn 0.000000 -0.937740 -0.347098
vn 0.000000 -0.937740 -0.347098
vn 0.000000 -0.767564 -0.640817
vn 0.000000 1.000000 0.000000
vn 0.000000 1.000000 0.000000
vn 0.000000 1.000000 0.000000
vn 0.000000 1.000000 0.000000
vn 1.000000 0.000000 0.000000
vn 1.000000 0.000000 0.000000
vn 1.000000 0.000000 0.000000
vn 1.000000 0.000000 0.000000
vn 0.000000 1.000000 0.000000
vn 0.000000 1.000000 0.000000
vn 0.000000 1.000000 0.000000
vn 0.000000 1.000000 0.000000
vn -1.000000 0.000000 0.000000
vn -1.000000 0.000000 0.000000
vn -1.000000 0.000000 0.000000
vn -1.000000 0.000000 0.000000
vn 0.000000 -0.455381 0.890283
vn 0.000000 -0.455381 0.890283
vn 0.000000 -0.164469 0.986327
vn 0.000000 -0.164469 0.986327
vn 1.000000 0.000000 0.000000
vn 1.000000 0.000000 0.000000
vn 0.000000 1.000000 0.000000
vn 0.000000 1.000000 0.000000
vn -1.000000 0.000000 0.000000
vn -1.000000 0.000000 0.000000
vn 0.000000 -0.992279 -0.123390
vn 0.000000 -0.992279 -0.123390
vn 0.000000 1.000000 0.000000
vn 0.000000 1.000000 0.000000
vn 0.000000 1.000000 0.000000
vn 0.000000 1.000000 0.000000
vn 1.000000 0.000000 0.000000
vn 1.000000 0.000000 0.000000
vn 1.000000 0.000000 0.000000
vn 1.000000 0.000000 0.000000
vn 0.000000 -0.253189 -0.967405
vn 0.000000 -0.476897 -0.878899
vn 0.000000 -0.476897 -0.878899
vn 0.000000 -0.253189 -0.967405
vn -1.000000 0.000000 0.000000
vn -1.000000 0.000000 0.000000
vn -1.000000 0.000000 0.000000
vn -1.000000 0.000000 0.000000
vn 0.000000 1.000000 0.000000
vn 0.000000 1.000000 0.000000
vn 0.000000 1.000000 0.000000
vn 0.000000 1.000000 0.000000
vn 1.000000 0.000000 0.000000
vn 1.000000 0.000000 0.000000
vn 1.000000 0.000000 0.000000
vn 1.000000 0.000000 0.000000
vn 0.000000 -0.915248 0.402704
vn 0.000000 -0.915248 0.402704
vn 0.000000 -0.717756 0.696209
vn 0.000000 -0.717756 0.696209
vn -1.000000 0.000000 0.000000
vn -1.000000 0.000000 0.000000
vn -1.000000 0.000000 0.000000
vn -1.000000 0.000000 0.000000
vn 0.000000 1.000000 0.000000
vn 0.000000 1.000000 0.000000
vn -1.000000 0.000000 0.000000
vn -1.000000 0.000000 0.000000
vn 0.000000 -0.991363 0.130562
vn 0.000000 -0.991363 0.130562
vn 1.000000 0.000000 0.000000
vn 1.000000 0.000000 0.000000
# 78 uv coords
vt 0.001519 0.458204
vt 0.001523 0.395006
vt 0.025988 0.395008
vt 0.025984 0.458203
vt 0.001529 0.336017
vt 0.025994 0.336018
vt 0.001536 0.547000
vt 0.026001 0.546996
vt 0.001530 0.278968
vt 0.025995 0.278968
vt 0.001543 0.621055
vt 0.026008 0.621052
vt 0.001530 0.220185
vt 0.025994 0.220185
vt 0.001530 0.152728
vt 0.025994 0.152728
vt 0.001530 0.057917
vt 0.025994 0.057917
vt 0.001530 0.001519
vt 0.025995 0.001519
vt 0.054438 0.457873
vt 0.054795 0.400840
vt 0.055148 0.343812
vt 0.055495 0.286788
vt 0.055830 0.229764
vt 0.056157 0.172737
vt 0.056476 0.115709
vt 0.056786 0.058686
vt 0.610645 0.001519
vt 0.610731 0.529391
vt 0.586267 0.529395
vt 0.586180 0.001523
vt 0.614362 0.528679
vt 0.614275 0.001523
vt 0.638739 0.001519
vt 0.638826 0.528675
vt 0.414015 0.345979
vt 0.440860 0.403218
vt 0.399336 0.288805
vt 0.508550 0.460701
vt 0.030330 0.400690
vt 0.030684 0.343663
vt 0.400506 0.231728
vt 0.031031 0.286641
vt 0.580072 0.479907
vt 0.054078 0.514911
vt 0.029975 0.457721
vt 0.415023 0.174733
vt 0.031365 0.229620
vt 0.029613 0.514759
vt 0.451349 0.117855
vt 0.031694 0.172598
vt 0.526916 0.060543
vt 0.032012 0.115575
vt 0.057084 0.001656
vt 0.582594 0.051527
vt 0.032322 0.058552
vt 0.032621 0.001519
vt 0.178828 0.881869
vt 0.206329 0.825007
vt 0.565196 0.826843
vt 0.564897 0.883920
vt 0.110470 0.938501
vt 0.564584 0.941001
vt 0.221643 0.768058
vt 0.565486 0.769786
vt 0.564265 0.998060
vt 0.038724 0.956832
vt 0.221098 0.711028
vt 0.565775 0.712731
vt 0.207188 0.653947
vt 0.566056 0.655661
vt 0.171452 0.596768
vt 0.566327 0.598587
vt 0.096460 0.538802
vt 0.566585 0.541502
vt 0.040871 0.529312
vt 0.566832 0.484434
# 38 polygons
usemtl initialShadingGroup
s off
g pCube33
f 1/33/1 2/34/2 4/35/3 3/36/4
s 1
f 22/62/5 23/59/6 13/60/7 14/61/8
s off
f 5/29/9 6/30/10 8/31/11 7/32/12
s 2
f 15/23/13 16/37/14 24/38/15 21/22/16
s 3
f 24/1/17 16/2/18 13/3/19 23/4/20
s 4
f 15/23/21 21/22/22 22/41/23 14/42/24
s 1
f 30/76/25 31/75/26 6/77/27 5/78/28
s 4
f 7/55/29 29/28/30 30/57/31 5/58/32
s 2
f 7/55/33 8/56/34 32/53/35 29/28/36
s 3
f 31/18/37 32/17/38 8/19/39 6/20/40
s 1
f 14/61/8 13/60/7 40/65/41 37/66/42
s 4
f 38/24/43 15/23/21 14/42/24 37/44/44
s 2
f 38/24/45 39/39/46 16/37/14 15/23/13
s 3
f 13/3/19 16/2/18 39/5/47 40/6/48
s 4
f 17/21/49 1/46/50 3/50/51 18/47/52
s 1
f 3/67/53 4/68/54 19/63/55 18/64/56
s 3
f 2/11/57 20/7/58 19/8/59 4/12/60
s 2
f 17/21/61 20/40/62 2/45/63 1/46/64
s 4
f 21/22/22 17/21/49 18/47/52 22/41/23
s 1
f 18/64/56 19/63/55 23/59/6 22/62/5
s 3
f 20/7/58 24/1/17 23/4/20 19/8/59
s 2
f 21/22/16 24/38/15 20/40/62 17/21/61
s 4
f 25/27/65 11/26/66 10/52/67 26/54/68
s 1
f 10/72/69 9/71/70 27/73/71 26/74/72
s 3
f 9/14/73 12/13/74 28/15/75 27/16/76
s 2
f 25/27/77 28/51/78 12/48/79 11/26/80
s 4
f 29/28/30 25/27/65 26/54/68 30/57/31
s 1
f 26/74/72 27/73/71 31/75/26 30/76/25
s 3
f 27/16/76 28/15/75 32/17/38 31/18/37
s 2
f 29/28/36 32/53/35 28/51/78 25/27/77
s 4
f 11/26/66 34/25/81 33/49/82 10/52/67
s 2
f 11/26/80 12/48/79 35/43/83 34/25/84
s 3
f 36/10/85 35/9/86 12/13/74 9/14/73
s 1
f 33/70/87 36/69/88 9/71/70 10/72/69
s 4
f 34/25/81 38/24/43 37/44/44 33/49/82
s 2
f 34/25/84 35/43/83 39/39/46 38/24/45
s 3
f 40/6/48 39/5/47 35/9/86 36/10/85
s 1
f 37/66/42 40/65/41 36/69/88 33/70/87
# h3dt: 40 78 88 38
