# author: headus 3D tools
#  using: ply2obj v1.11
#   from: uvlayout v2.10.03
# 66 vertices
v 0.881290 3.393061 -0.794980
v 0.428593 3.200811 -0.794980
v 0.069331 2.901370 -0.794980
v -0.161327 2.524052 -0.794980
v -0.240809 2.105794 -0.794980
v 3.007024 2.105794 -0.794980
v 2.927544 2.524052 -0.794980
v 2.696883 2.901369 -0.794980
v 2.337621 3.200811 -0.794980
v 1.884924 3.393061 -0.794980
v 1.383107 3.459305 -0.794980
v 0.881290 3.393061 20.727582
v 0.428593 3.200811 20.727582
v 0.069331 2.901370 20.727582
v -0.161327 2.524052 20.727582
v -0.240809 2.105794 20.727582
v 3.007024 2.105794 20.727582
v 2.927544 2.524052 20.727582
v 2.696883 2.901369 20.727582
v 2.337621 3.200811 20.727582
v 1.884924 3.393061 20.727582
v 1.383107 3.459305 20.727582
v 0.978328 3.144135 -0.794980
v 0.613174 2.989059 -0.794980
v 0.323385 2.747524 -0.794980
v 0.137331 2.443172 -0.794980
v 0.073219 2.105794 -0.794980
v 2.692996 2.105794 -0.794980
v 2.628885 2.443172 -0.794980
v 2.442829 2.747524 -0.794980
v 2.153041 2.989059 -0.794980
v 1.787884 3.144135 -0.794980
v 1.383107 3.197569 -0.794980
v 0.978328 3.144135 20.727582
v 0.613174 2.989059 20.727582
v 0.323385 2.747524 20.727582
v 0.137331 2.443172 20.727582
v 0.073219 2.105794 20.727582
v 2.692996 2.105794 20.727582
v 2.628885 2.443172 20.727582
v 2.442829 2.747524 20.727582
v 2.153041 2.989059 20.727582
v 1.787884 3.144135 20.727582
v 1.383107 3.197569 20.727582
v 0.978328 3.144135 3.747191
v 0.613174 2.989059 3.747191
v 0.323385 2.747524 3.747191
v 0.137331 2.443172 3.747191
v 0.073219 2.105794 3.747191
v 2.692996 2.105794 3.747191
v 2.628885 2.443172 3.747191
v 2.442829 2.747524 3.747191
v 2.153041 2.989059 3.747191
v 1.787884 3.144135 3.747191
v 1.383107 3.197569 3.747191
v 0.978328 3.144135 16.185406
v 0.613174 2.989059 16.185406
v 0.323385 2.747524 16.185406
v 0.137331 2.443172 16.185406
v 0.073219 2.105794 16.185406
v 2.692996 2.105794 16.185406
v 2.628885 2.443172 16.185406
v 2.442829 2.747524 16.185406
v 2.153041 2.989059 16.185406
v 1.787884 3.144135 16.185406
v 1.383107 3.197569 16.185406
# 168 normals
vn -0.261307 0.965147 0.000000
vn -0.517915 0.855368 0.000000
vn -0.517915 0.855368 0.000000
vn -0.261307 0.965147 0.000000
vn -0.753800 0.657084 0.000000
vn -0.753800 0.657084 0.000000
vn -0.931636 0.363181 0.000000
vn -0.931636 0.363181 0.000000
vn -0.982390 0.186657 0.000000
vn -0.982390 0.186657 0.000000
vn 0.982390 0.186657 0.000000
vn 0.931636 0.363181 0.000000
vn 0.931636 0.363181 0.000000
vn 0.982390 0.186657 0.000000
vn 0.753800 0.657084 0.000000
vn 0.753800 0.657084 0.000000
vn 0.517915 0.855368 0.000000
vn 0.517915 0.855368 0.000000
vn 0.261338 0.965147 0.000000
vn 0.261338 0.965147 0.000000
vn 0.000000 1.000000 0.000000
vn 0.000000 1.000000 0.000000
vn 0.000000 0.000000 -1.000000
vn 0.000000 0.000000 -1.000000
vn 0.000000 0.000000 -1.000000
vn 0.000000 0.000000 -1.000000
vn 0.000000 0.000000 -1.000000
vn 0.000000 0.000000 -1.000000
vn 0.000000 0.000000 -1.000000
vn 0.000000 0.000000 -1.000000
vn 0.000000 0.000000 -1.000000
vn 0.000000 0.000000 -1.000000
vn 0.000000 0.000000 -1.000000
vn 0.000000 0.000000 -1.000000
vn 0.000000 0.000000 -1.000000
vn 0.000000 0.000000 -1.000000
vn 0.000000 0.000000 -1.000000
vn 0.000000 0.000000 -1.000000
vn 0.000000 0.000000 -1.000000
vn 0.000000 0.000000 -1.000000
vn 0.000000 0.000000 -1.000000
vn 0.000000 0.000000 -1.000000
vn 0.000000 0.000000 -1.000000
vn 0.000000 0.000000 -1.000000
vn 0.000000 0.000000 1.000000
vn 0.000000 0.000000 1.000000
vn 0.000000 0.000000 1.000000
vn 0.000000 0.000000 1.000000
vn 0.000000 0.000000 1.000000
vn 0.000000 0.000000 1.000000
vn 0.000000 0.000000 1.000000
vn 0.000000 0.000000 1.000000
vn 0.000000 0.000000 1.000000
vn 0.000000 0.000000 1.000000
vn 0.000000 0.000000 1.000000
vn 0.000000 0.000000 1.000000
vn 0.000000 0.000000 1.000000
vn 0.000000 0.000000 1.000000
vn 0.000000 0.000000 1.000000
vn 0.000000 0.000000 1.000000
vn 0.000000 0.000000 1.000000
vn 0.000000 0.000000 1.000000
vn 0.000000 0.000000 1.000000
vn 0.000000 0.000000 1.000000
vn 0.000000 0.000000 1.000000
vn 0.000000 0.000000 1.000000
vn 0.517915 -0.855368 0.000000
vn 0.261307 -0.965147 0.000000
vn 0.261307 -0.965147 0.000000
vn 0.517915 -0.855368 0.000000
vn 0.753800 -0.657084 0.000000
vn 0.753800 -0.657084 0.000000
vn 0.931636 -0.363181 0.000000
vn 0.931636 -0.363181 0.000000
vn 0.982390 -0.186657 0.000000
vn 0.982390 -0.186657 0.000000
vn -0.931636 -0.363181 0.000000
vn -0.982390 -0.186657 0.000000
vn -0.982390 -0.186657 0.000000
vn -0.931636 -0.363181 0.000000
vn -0.753800 -0.657084 0.000000
vn -0.753800 -0.657084 0.000000
vn -0.517915 -0.855368 0.000000
vn -0.517915 -0.855368 0.000000
vn -0.261338 -0.965147 0.000000
vn -0.261338 -0.965147 0.000000
vn 0.000000 -1.000000 0.000000
vn 0.000000 -1.000000 0.000000
vn 0.261307 -0.965147 0.000000
vn 0.517915 -0.855368 0.000000
vn 0.517915 -0.855368 0.000000
vn 0.261307 -0.965147 0.000000
vn 0.753800 -0.657084 0.000000
vn 0.753800 -0.657084 0.000000
vn 0.931636 -0.363181 0.000000
vn 0.931636 -0.363181 0.000000
vn 0.982390 -0.186657 0.000000
vn 0.982390 -0.186657 0.000000
vn -0.982390 -0.186657 0.000000
vn -0.931636 -0.363181 0.000000
vn -0.931636 -0.363181 0.000000
vn -0.982390 -0.186657 0.000000
vn -0.753800 -0.657084 0.000000
vn -0.753800 -0.657084 0.000000
vn -0.517915 -0.855368 0.000000
vn -0.517915 -0.855368 0.000000
vn -0.261338 -0.965147 0.000000
vn -0.261338 -0.965147 0.000000
vn 0.000000 -1.000000 0.000000
vn 0.000000 -1.000000 0.000000
vn 0.982390 -0.186657 0.000000
vn 0.982390 -0.186657 0.000000
vn 0.982390 -0.186657 0.000000
vn 0.982390 -0.186657 0.000000
vn 0.853201 -0.521516 0.000000
vn 0.853201 -0.521516 0.000000
vn 0.853201 -0.521516 0.000000
vn 0.853201 -0.521516 0.000000
vn -0.982390 -0.186657 0.000000
vn -0.982390 -0.186657 0.000000
vn -0.982390 -0.186657 0.000000
vn -0.982390 -0.186657 0.000000
vn -0.853201 -0.521516 0.000000
vn -0.853201 -0.521516 0.000000
vn -0.853201 -0.521516 0.000000
vn -0.853201 -0.521516 0.000000
vn -0.640237 -0.768144 0.000000
vn -0.640237 -0.768144 0.000000
vn -0.640237 -0.768144 0.000000
vn -0.640237 -0.768144 0.000000
vn -0.390893 -0.920436 0.000000
vn -0.390893 -0.920436 0.000000
vn -0.390893 -0.920436 0.000000
vn -0.390893 -0.920436 0.000000
vn -0.130837 -0.991332 0.000000
vn -0.130837 -0.991332 0.000000
vn -0.130837 -0.991332 0.000000
vn -0.130837 -0.991332 0.000000
vn 0.130837 -0.991332 0.000000
vn 0.130837 -0.991332 0.000000
vn 0.130837 -0.991332 0.000000
vn 0.130837 -0.991332 0.000000
vn 0.390893 -0.920436 0.000000
vn 0.390893 -0.920436 0.000000
vn 0.390893 -0.920436 0.000000
vn 0.390893 -0.920436 0.000000
vn 0.640237 -0.768144 0.000000
vn 0.640237 -0.768144 0.000000
vn 0.640237 -0.768144 0.000000
vn 0.640237 -0.768144 0.000000
vn 0.000000 -1.000000 0.000000
vn 0.000000 -1.000000 0.000000
vn 0.000000 -1.000000 0.000000
vn 0.000000 -1.000000 0.000000
vn 0.000000 -1.000000 0.000000
vn 0.000000 -1.000000 0.000000
vn 0.000000 -1.000000 0.000000
vn 0.000000 -1.000000 0.000000
vn 0.000000 -1.000000 0.000000
vn 0.000000 -1.000000 0.000000
vn 0.000000 -1.000000 0.000000
vn 0.000000 -1.000000 0.000000
vn 0.000000 -1.000000 0.000000
vn 0.000000 -1.000000 0.000000
vn 0.000000 -1.000000 0.000000
vn 0.000000 -1.000000 0.000000
vn 0.000000 -1.000000 0.000000
vn 0.000000 -1.000000 0.000000
# 100 uv coords
vt 0.131937 0.982103
vt 0.153356 0.981984
vt 0.173527 0.981845
vt 0.192564 0.981951
vt 0.026953 0.982059
vt 0.045990 0.981928
vt 0.066162 0.982041
vt 0.087581 0.982132
vt 0.109759 0.982151
vt 0.297171 0.015763
vt 0.277938 0.015690
vt 0.259521 0.015631
vt 0.242206 0.015911
vt 0.391488 0.016200
vt 0.374179 0.015850
vt 0.355764 0.015837
vt 0.336530 0.015837
vt 0.316850 0.015809
vt 0.297609 0.222511
vt 0.279547 0.222502
vt 0.262384 0.222571
vt 0.246166 0.222827
vt 0.386208 0.223083
vt 0.370003 0.222767
vt 0.352851 0.222635
vt 0.334797 0.222578
vt 0.316203 0.222540
vt 0.297868 0.788822
vt 0.279872 0.788840
vt 0.262764 0.788912
vt 0.246582 0.789022
vt 0.386238 0.789274
vt 0.370040 0.789106
vt 0.352920 0.788972
vt 0.334917 0.788889
vt 0.316393 0.788841
vt 0.963093 0.789721
vt 0.963345 0.223372
vt 0.977747 0.016560
vt 0.977297 0.996548
vt 0.962999 0.996541
vt 0.963456 0.016553
vt 0.996789 0.208765
vt 0.996791 0.775107
vt 0.982476 0.981926
vt 0.982474 0.001947
vt 0.996766 0.981922
vt 0.996764 0.001950
vt 0.085832 0.002066
vt 0.109137 0.002079
vt 0.132443 0.002035
vt 0.109767 0.994093
vt 0.088834 0.994238
vt 0.063193 0.002016
vt 0.155082 0.001957
vt 0.130699 0.994211
vt 0.068274 0.994596
vt 0.041686 0.002034
vt 0.176591 0.001947
vt 0.151260 0.994542
vt 0.048419 0.995032
vt 0.021393 0.002355
vt 0.196885 0.002241
vt 0.171116 0.994952
vt 0.029717 0.995568
vt 0.001947 0.002689
vt 0.008170 0.983442
vt 0.216331 0.002552
vt 0.211348 0.983311
vt 0.189818 0.995464
vt 0.013155 0.997776
vt 0.206382 0.997651
vt 0.297345 0.995619
vt 0.279364 0.995642
vt 0.262250 0.995703
vt 0.315844 0.995635
vt 0.276107 0.003178
vt 0.296095 0.003819
vt 0.246045 0.995772
vt 0.334342 0.995686
vt 0.230972 0.789073
vt 0.230544 0.223104
vt 0.257305 0.002300
vt 0.316874 0.004063
vt 0.230420 0.995781
vt 0.352323 0.995774
vt 0.226243 0.017435
vt 0.239267 0.001947
vt 0.337652 0.003898
vt 0.369435 0.995897
vt 0.221032 0.004903
vt 0.357644 0.003332
vt 0.385637 0.996026
vt 0.376451 0.002527
vt 0.401821 0.223409
vt 0.401857 0.789372
vt 0.401261 0.996107
vt 0.394494 0.002251
vt 0.407440 0.017805
vt 0.412714 0.005299
# 65 polygons
usemtl initialShadingGroup
s 1
g pCylinder5
f 1/51/1 2/55/2 13/2/3 12/1/4
f 2/55/2 3/59/5 14/3/6 13/2/3
f 3/59/5 4/63/7 15/4/8 14/3/6
f 4/63/7 5/68/9 16/69/10 15/4/8
f 6/66/11 7/62/12 18/5/13 17/67/14
f 7/62/12 8/58/15 19/6/16 18/5/13
f 8/58/15 9/54/17 20/7/18 19/6/16
f 9/54/17 10/49/19 21/8/20 20/7/18
f 10/49/19 11/50/21 22/9/22 21/8/20
f 11/50/21 1/51/1 12/1/4 22/9/22
s 3
f 2/77/23 1/78/24 23/10/25 24/11/26
f 3/83/27 2/77/23 24/11/26 25/12/28
f 4/88/29 3/83/27 25/12/28 26/13/30
f 5/91/31 4/88/29 26/13/30 27/87/32
f 7/98/33 6/100/34 28/99/35 29/14/36
f 8/94/37 7/98/33 29/14/36 30/15/38
f 9/92/39 8/94/37 30/15/38 31/16/40
f 10/89/41 9/92/39 31/16/40 32/17/42
f 11/84/43 10/89/41 32/17/42 33/18/44
f 1/78/24 11/84/43 33/18/44 23/10/25
s 5
f 12/1/45 13/2/46 35/60/47 34/56/48
f 13/2/46 14/3/49 36/64/50 35/60/47
f 14/3/49 15/4/51 37/70/52 36/64/50
f 15/4/51 16/69/53 38/72/54 37/70/52
f 17/67/55 18/5/56 40/65/57 39/71/58
f 18/5/56 19/6/59 41/61/60 40/65/57
f 19/6/59 20/7/61 42/57/62 41/61/60
f 20/7/61 21/8/63 43/53/64 42/57/62
f 21/8/63 22/9/65 44/52/66 43/53/64
f 22/9/65 12/1/45 34/56/48 44/52/66
s 7
f 24/11/67 23/10/68 45/19/69 46/20/70
f 25/12/71 24/11/67 46/20/70 47/21/72
f 26/13/73 25/12/71 47/21/72 48/22/74
f 27/87/75 26/13/73 48/22/74 49/82/76
f 29/14/77 28/99/78 50/95/79 51/23/80
f 30/15/81 29/14/77 51/23/80 52/24/82
f 31/16/83 30/15/81 52/24/82 53/25/84
f 32/17/85 31/16/83 53/25/84 54/26/86
f 33/18/87 32/17/85 54/26/86 55/27/88
f 23/10/68 33/18/87 55/27/88 45/19/69
s 9
f 34/73/89 35/74/90 57/29/91 56/28/92
f 35/74/90 36/75/93 58/30/94 57/29/91
f 36/75/93 37/79/95 59/31/96 58/30/94
f 37/79/95 38/85/97 60/81/98 59/31/96
f 39/97/99 40/93/100 62/32/101 61/96/102
f 40/93/100 41/90/103 63/33/104 62/32/101
f 41/90/103 42/86/105 64/34/106 63/33/104
f 42/86/105 43/80/107 65/35/108 64/34/106
f 43/80/107 44/76/109 66/36/110 65/35/108
f 44/76/109 34/73/89 56/28/92 66/36/110
s off
f 49/82/111 48/22/112 59/31/113 60/81/114
f 58/30/115 59/31/116 48/22/117 47/21/118
f 61/96/119 62/32/120 51/23/121 50/95/122
f 62/32/123 63/33/124 52/24/125 51/23/126
f 63/33/127 64/34/128 53/25/129 52/24/130
f 64/34/131 65/35/132 54/26/133 53/25/134
f 65/35/135 66/36/136 55/27/137 54/26/138
f 66/36/139 56/28/140 45/19/141 55/27/142
f 56/28/143 57/29/144 46/20/145 45/19/146
f 57/29/147 58/30/148 47/21/149 46/20/150
f 61/37/151 50/38/152 6/39/153 17/40/154 39/41/155
f 50/38/156 28/42/157 6/39/158
f 49/43/159 60/44/160 16/45/161 5/46/162
f 60/44/163 38/47/164 16/45/165
f 49/43/166 5/46/167 27/48/168
# h3dt: 66 100 168 65
