# author: headus 3D tools
#  using: ply2obj v1.11
#   from: uvlayout v2.10.03
# 66 vertices
v 15.053061 -0.494539 18.749166
v 15.053061 -0.686789 18.296469
v 15.053061 -0.986231 17.937207
v 15.053061 -1.363548 17.706547
v 15.053061 -1.781806 17.627069
v 15.053061 -1.781806 20.874900
v 15.053061 -1.363548 20.795418
v 15.053061 -0.986231 20.564759
v 15.053061 -0.686790 20.205497
v 15.053061 -0.494539 19.752801
v 15.053061 -0.428295 19.250983
v 6.012057 -0.494539 18.749166
v 6.012057 -0.686789 18.296469
v 6.012057 -0.986231 17.937207
v 6.012057 -1.363548 17.706547
v 6.012057 -1.781806 17.627069
v 6.012057 -1.781806 20.874900
v 6.012057 -1.363548 20.795418
v 6.012057 -0.986231 20.564759
v 6.012057 -0.686790 20.205497
v 6.012057 -0.494539 19.752801
v 6.012057 -0.428295 19.250983
v 15.053061 -0.743467 18.846206
v 15.053061 -0.898542 18.481050
v 15.053061 -1.140076 18.191261
v 15.053061 -1.444428 18.005207
v 15.053061 -1.781806 17.941095
v 15.053061 -1.781806 20.560869
v 15.053061 -1.444428 20.496760
v 15.053061 -1.140076 20.310704
v 15.053061 -0.898542 20.020917
v 15.053061 -0.743467 19.655761
v 15.053061 -0.690032 19.250983
v 6.012057 -0.743467 18.846206
v 6.012057 -0.898542 18.481050
v 6.012057 -1.140076 18.191261
v 6.012057 -1.444428 18.005207
v 6.012057 -1.781806 17.941095
v 6.012057 -1.781806 20.560869
v 6.012057 -1.444428 20.496760
v 6.012057 -1.140076 20.310704
v 6.012057 -0.898542 20.020917
v 6.012057 -0.743467 19.655761
v 6.012057 -0.690032 19.250983
v 13.145028 -0.743467 18.846206
v 13.145028 -0.898542 18.481050
v 13.145028 -1.140076 18.191261
v 13.145028 -1.444428 18.005207
v 13.145028 -1.781806 17.941095
v 13.145028 -1.781806 20.560869
v 13.145028 -1.444428 20.496760
v 13.145028 -1.140076 20.310704
v 13.145028 -0.898542 20.020917
v 13.145028 -0.743467 19.655761
v 13.145028 -0.690032 19.250983
v 7.920093 -0.743467 18.846206
v 7.920093 -0.898542 18.481050
v 7.920093 -1.140076 18.191261
v 7.920093 -1.444428 18.005207
v 7.920093 -1.781806 17.941095
v 7.920093 -1.781806 20.560869
v 7.920093 -1.444428 20.496760
v 7.920093 -1.140076 20.310704
v 7.920093 -0.898542 20.020917
v 7.920093 -0.743467 19.655761
v 7.920093 -0.690032 19.250983
# 168 normals
vn 0.000000 0.965147 -0.261307
vn 0.000000 0.855368 -0.517915
vn 0.000000 0.855368 -0.517915
vn 0.000000 0.965147 -0.261307
vn 0.000000 0.657084 -0.753800
vn 0.000000 0.657084 -0.753800
vn 0.000000 0.363181 -0.931636
vn 0.000000 0.363181 -0.931636
vn 0.000000 0.186657 -0.982390
vn 0.000000 0.186657 -0.982390
vn 0.000000 0.186657 0.982390
vn 0.000000 0.363181 0.931636
vn 0.000000 0.363181 0.931636
vn 0.000000 0.186657 0.982390
vn 0.000000 0.657084 0.753800
vn 0.000000 0.657084 0.753800
vn 0.000000 0.855368 0.517915
vn 0.000000 0.855368 0.517915
vn 0.000000 0.965147 0.261338
vn 0.000000 0.965147 0.261338
vn 0.000000 1.000000 0.000000
vn 0.000000 1.000000 0.000000
vn 1.000000 0.000000 0.000000
vn 1.000000 0.000000 0.000000
vn 1.000000 0.000000 0.000000
vn 1.000000 0.000000 0.000000
vn 1.000000 0.000000 0.000000
vn 1.000000 0.000000 0.000000
vn 1.000000 0.000000 0.000000
vn 1.000000 0.000000 0.000000
vn 1.000000 0.000000 0.000000
vn 1.000000 0.000000 0.000000
vn 1.000000 0.000000 0.000000
vn 1.000000 0.000000 0.000000
vn 1.000000 0.000000 0.000000
vn 1.000000 0.000000 0.000000
vn 1.000000 0.000000 0.000000
vn 1.000000 0.000000 0.000000
vn 1.000000 0.000000 0.000000
vn 1.000000 0.000000 0.000000
vn 1.000000 0.000000 0.000000
vn 1.000000 0.000000 0.000000
vn 1.000000 0.000000 0.000000
vn 1.000000 0.000000 0.000000
vn -1.000000 0.000000 0.000000
vn -1.000000 0.000000 0.000000
vn -1.000000 0.000000 0.000000
vn -1.000000 0.000000 0.000000
vn -1.000000 0.000000 0.000000
vn -1.000000 0.000000 0.000000
vn -1.000000 0.000000 0.000000
vn -1.000000 0.000000 0.000000
vn -1.000000 0.000000 0.000000
vn -1.000000 0.000000 0.000000
vn -1.000000 0.000000 0.000000
vn -1.000000 0.000000 0.000000
vn -1.000000 0.000000 0.000000
vn -1.000000 0.000000 0.000000
vn -1.000000 0.000000 0.000000
vn -1.000000 0.000000 0.000000
vn -1.000000 0.000000 0.000000
vn -1.000000 0.000000 0.000000
vn -1.000000 0.000000 0.000000
vn -1.000000 0.000000 0.000000
vn -1.000000 0.000000 0.000000
vn -1.000000 0.000000 0.000000
vn 0.000000 -0.855368 0.517915
vn 0.000000 -0.965147 0.261307
vn 0.000000 -0.965147 0.261307
vn 0.000000 -0.855368 0.517915
vn 0.000000 -0.657084 0.753800
vn 0.000000 -0.657084 0.753800
vn 0.000000 -0.363181 0.931636
vn 0.000000 -0.363181 0.931636
vn 0.000000 -0.186657 0.982390
vn 0.000000 -0.186657 0.982390
vn 0.000000 -0.363181 -0.931636
vn 0.000000 -0.186657 -0.982390
vn 0.000000 -0.186657 -0.982390
vn 0.000000 -0.363181 -0.931636
vn 0.000000 -0.657084 -0.753800
vn 0.000000 -0.657084 -0.753800
vn 0.000000 -0.855368 -0.517915
vn 0.000000 -0.855368 -0.517915
vn 0.000000 -0.965147 -0.261338
vn 0.000000 -0.965147 -0.261338
vn 0.000000 -1.000000 0.000000
vn 0.000000 -1.000000 0.000000
vn 0.000000 -0.965147 0.261307
vn 0.000000 -0.855368 0.517915
vn 0.000000 -0.855368 0.517915
vn 0.000000 -0.965147 0.261307
vn 0.000000 -0.657084 0.753800
vn 0.000000 -0.657084 0.753800
vn 0.000000 -0.363181 0.931636
vn 0.000000 -0.363181 0.931636
vn 0.000000 -0.186657 0.982390
vn 0.000000 -0.186657 0.982390
vn 0.000000 -0.186657 -0.982390
vn 0.000000 -0.363181 -0.931636
vn 0.000000 -0.363181 -0.931636
vn 0.000000 -0.186657 -0.982390
vn 0.000000 -0.657084 -0.753800
vn 0.000000 -0.657084 -0.753800
vn 0.000000 -0.855368 -0.517915
vn 0.000000 -0.855368 -0.517915
vn 0.000000 -0.965147 -0.261338
vn 0.000000 -0.965147 -0.261338
vn 0.000000 -1.000000 0.000000
vn 0.000000 -1.000000 0.000000
vn 0.000000 -0.186657 0.982390
vn 0.000000 -0.186657 0.982390
vn 0.000000 -0.186657 0.982390
vn 0.000000 -0.186657 0.982390
vn 0.000000 -0.521516 0.853201
vn 0.000000 -0.521516 0.853201
vn 0.000000 -0.521516 0.853201
vn 0.000000 -0.521516 0.853201
vn 0.000000 -0.186657 -0.982390
vn 0.000000 -0.186657 -0.982390
vn 0.000000 -0.186657 -0.982390
vn 0.000000 -0.186657 -0.982390
vn 0.000000 -0.521516 -0.853201
vn 0.000000 -0.521516 -0.853201
vn 0.000000 -0.521516 -0.853201
vn 0.000000 -0.521516 -0.853201
vn 0.000000 -0.768144 -0.640237
vn 0.000000 -0.768144 -0.640237
vn 0.000000 -0.768144 -0.640237
vn 0.000000 -0.768144 -0.640237
vn 0.000000 -0.920436 -0.390893
vn 0.000000 -0.920436 -0.390893
vn 0.000000 -0.920436 -0.390893
vn 0.000000 -0.920436 -0.390893
vn 0.000000 -0.991332 -0.130837
vn 0.000000 -0.991332 -0.130837
vn 0.000000 -0.991332 -0.130837
vn 0.000000 -0.991332 -0.130837
vn 0.000000 -0.991332 0.130837
vn 0.000000 -0.991332 0.130837
vn 0.000000 -0.991332 0.130837
vn 0.000000 -0.991332 0.130837
vn 0.000000 -0.920436 0.390893
vn 0.000000 -0.920436 0.390893
vn 0.000000 -0.920436 0.390893
vn 0.000000 -0.920436 0.390893
vn 0.000000 -0.768144 0.640237
vn 0.000000 -0.768144 0.640237
vn 0.000000 -0.768144 0.640237
vn 0.000000 -0.768144 0.640237
vn 0.000000 -1.000000 0.000000
vn 0.000000 -1.000000 0.000000
vn 0.000000 -1.000000 0.000000
vn 0.000000 -1.000000 0.000000
vn 0.000000 -1.000000 0.000000
vn 0.000000 -1.000000 0.000000
vn 0.000000 -1.000000 0.000000
vn 0.000000 -1.000000 0.000000
vn 0.000000 -1.000000 0.000000
vn 0.000000 -1.000000 0.000000
vn 0.000000 -1.000000 0.000000
vn 0.000000 -1.000000 0.000000
vn 0.000000 -1.000000 0.000000
vn 0.000000 -1.000000 0.000000
vn 0.000000 -1.000000 0.000000
vn 0.000000 -1.000000 0.000000
vn 0.000000 -1.000000 0.000000
vn 0.000000 -1.000000 0.000000
# 100 uv coords
vt 0.966088 0.174619
vt 0.966298 0.131354
vt 0.966450 0.089849
vt 0.965649 0.050723
vt 0.965425 0.386973
vt 0.966280 0.347849
vt 0.966183 0.306342
vt 0.966031 0.263077
vt 0.965999 0.218848
vt 0.033095 0.174151
vt 0.032944 0.130887
vt 0.032848 0.089381
vt 0.033706 0.050257
vt 0.033475 0.386510
vt 0.032675 0.347383
vt 0.032828 0.305877
vt 0.033037 0.262613
vt 0.033126 0.218382
vt 0.769248 0.176346
vt 0.769327 0.135285
vt 0.769315 0.096406
vt 0.768884 0.059811
vt 0.768677 0.377541
vt 0.769156 0.340947
vt 0.769219 0.302071
vt 0.769193 0.261022
vt 0.769196 0.218689
vt 0.229933 0.176224
vt 0.229907 0.135176
vt 0.229971 0.096302
vt 0.230452 0.059711
vt 0.230242 0.377439
vt 0.229811 0.340845
vt 0.229799 0.301966
vt 0.229878 0.260905
vt 0.229930 0.218559
vt 0.997234 0.926976
vt 0.997234 0.959378
vt 0.800338 0.959386
vt 0.261161 0.959394
vt 0.064268 0.926972
vt 0.064265 0.959369
vt 0.005969 0.265086
vt 0.006509 0.218363
vt 0.992616 0.218866
vt 0.993096 0.265588
vt 0.006029 0.171641
vt 0.004467 0.310101
vt 0.993157 0.172146
vt 0.994537 0.310606
vt 0.004588 0.126622
vt 0.002488 0.352590
vt 0.994658 0.127129
vt 0.996460 0.353100
vt 0.767797 0.412825
vt 0.231080 0.412723
vt 0.002669 0.084127
vt 0.001948 0.393506
vt 0.037507 0.422606
vt 0.231334 0.024427
vt 0.768046 0.024527
vt 0.996636 0.084640
vt 0.996942 0.394019
vt 0.961336 0.423064
vt 0.002189 0.043210
vt 0.009229 0.434778
vt 0.037797 0.014166
vt 0.961616 0.014627
vt 0.997176 0.043725
vt 0.989596 0.435280
vt 0.009538 0.001948
vt 0.989893 0.002453
vt 0.198844 0.964231
vt 0.738024 0.964008
vt 0.934929 0.996356
vt 0.001961 0.996719
vt 0.001948 0.964313
vt 0.934922 0.963973
vt 0.064265 0.733184
vt 0.064265 0.680946
vt 0.997236 0.680946
vt 0.997236 0.733184
vt 0.064265 0.628709
vt 0.997236 0.628709
vt 0.064265 0.783940
vt 0.997236 0.783940
vt 0.064265 0.577953
vt 0.997236 0.577953
vt 0.064265 0.832205
vt 0.997236 0.832205
vt 0.064265 0.529688
vt 0.997236 0.529688
vt 0.064265 0.877842
vt 0.997236 0.877842
vt 0.064265 0.484051
vt 0.997236 0.484051
vt 0.064265 0.921776
vt 0.997236 0.921776
vt 0.064265 0.440117
vt 0.997236 0.440117
# 65 polygons
usemtl initialShadingGroup
s 1
g pCylinder8
f 1/83/1 2/87/2 13/88/3 12/84/4
f 2/87/2 3/91/5 14/92/6 13/88/3
f 3/91/5 4/95/7 15/96/8 14/92/6
f 4/95/7 5/99/9 16/100/10 15/96/8
f 6/97/11 7/93/12 18/94/13 17/98/14
f 7/93/12 8/89/15 19/90/16 18/94/13
f 8/89/15 9/85/17 20/86/18 19/90/16
f 9/85/17 10/79/19 21/82/20 20/86/18
f 10/79/19 11/80/21 22/81/22 21/82/20
f 11/80/21 1/83/1 12/84/4 22/81/22
s 3
f 2/53/23 1/49/24 23/1/25 24/2/26
f 3/62/27 2/53/23 24/2/26 25/3/28
f 4/69/29 3/62/27 25/3/28 26/4/30
f 5/72/31 4/69/29 26/4/30 27/68/32
f 7/63/33 6/70/34 28/64/35 29/5/36
f 8/54/37 7/63/33 29/5/36 30/6/38
f 9/50/39 8/54/37 30/6/38 31/7/40
f 10/46/41 9/50/39 31/7/40 32/8/42
f 11/45/43 10/46/41 32/8/42 33/9/44
f 1/49/24 11/45/43 33/9/44 23/1/25
s 5
f 12/47/45 13/51/46 35/11/47 34/10/48
f 13/51/46 14/57/49 36/12/50 35/11/47
f 14/57/49 15/65/51 37/13/52 36/12/50
f 15/65/51 16/71/53 38/67/54 37/13/52
f 17/66/55 18/58/56 40/14/57 39/59/58
f 18/58/56 19/52/59 41/15/60 40/14/57
f 19/52/59 20/48/61 42/16/62 41/15/60
f 20/48/61 21/43/63 43/17/64 42/16/62
f 21/43/63 22/44/65 44/18/66 43/17/64
f 22/44/65 12/47/45 34/10/48 44/18/66
s 7
f 24/2/67 23/1/68 45/19/69 46/20/70
f 25/3/71 24/2/67 46/20/70 47/21/72
f 26/4/73 25/3/71 47/21/72 48/22/74
f 27/68/75 26/4/73 48/22/74 49/61/76
f 29/5/77 28/64/78 50/55/79 51/23/80
f 30/6/81 29/5/77 51/23/80 52/24/82
f 31/7/83 30/6/81 52/24/82 53/25/84
f 32/8/85 31/7/83 53/25/84 54/26/86
f 33/9/87 32/8/85 54/26/86 55/27/88
f 23/1/68 33/9/87 55/27/88 45/19/69
s 9
f 34/10/89 35/11/90 57/29/91 56/28/92
f 35/11/90 36/12/93 58/30/94 57/29/91
f 36/12/93 37/13/95 59/31/96 58/30/94
f 37/13/95 38/67/97 60/60/98 59/31/96
f 39/59/99 40/14/100 62/32/101 61/56/102
f 40/14/100 41/15/103 63/33/104 62/32/101
f 41/15/103 42/16/105 64/34/106 63/33/104
f 42/16/105 43/17/107 65/35/108 64/34/106
f 43/17/107 44/18/109 66/36/110 65/35/108
f 44/18/109 34/10/89 56/28/92 66/36/110
s off
f 49/61/111 48/22/112 59/31/113 60/60/114
f 58/30/115 59/31/116 48/22/117 47/21/118
f 61/56/119 62/32/120 51/23/121 50/55/122
f 62/32/123 63/33/124 52/24/125 51/23/126
f 63/33/127 64/34/128 53/25/129 52/24/130
f 64/34/131 65/35/132 54/26/133 53/25/134
f 65/35/135 66/36/136 55/27/137 54/26/138
f 66/36/139 56/28/140 45/19/141 55/27/142
f 56/28/143 57/29/144 46/20/145 45/19/146
f 57/29/147 58/30/148 47/21/149 46/20/150
f 61/73/151 50/74/152 6/75/153 17/76/154 39/77/155
f 50/74/156 28/78/157 6/75/158
f 49/39/159 60/40/160 16/41/161 5/37/162
f 60/40/163 38/42/164 16/41/165
f 49/39/166 5/37/167 27/38/168
# h3dt: 66 100 168 65
