# author: headus 3D tools
#  using: ply2obj v1.11
#   from: uvlayout v2.10.03
# 66 vertices
v 6.0629320 1.6185780 18.7491665
v 6.0629320 1.4263261 18.2964688
v 6.0629320 1.1268861 17.9372063
v 6.0629320 0.7495690 17.7065469
v 6.0629320 0.3313110 17.6270676
v 6.0629320 0.3313110 20.8749009
v 6.0629320 0.7495690 20.7954197
v 6.0629320 1.1268851 20.5647603
v 6.0629320 1.4263250 20.2054978
v 6.0629320 1.6185771 19.7528019
v 6.0629320 1.6848230 19.2509842
v 2.7252828 1.6185780 18.7491665
v 2.7252828 1.4263261 18.2964688
v 2.7252828 1.1268861 17.9372063
v 2.7252828 0.7495690 17.7065469
v 2.7252828 0.3313110 17.6270676
v 2.7252828 0.3313110 20.8749009
v 2.7252828 0.7495690 20.7954197
v 2.7252828 1.1268851 20.5647603
v 2.7252828 1.4263250 20.2054978
v 2.7252828 1.6185771 19.7528019
v 2.7252828 1.6848230 19.2509842
v 6.0629320 1.3696501 18.8462066
v 6.0629320 1.2145751 18.4810505
v 6.0629320 0.9730401 18.1912614
v 6.0629320 0.6686880 18.0052052
v 6.0629320 0.3313110 17.9410954
v 6.0629320 0.3313110 20.5608713
v 6.0629320 0.6686880 20.4967615
v 6.0629320 0.9730401 20.3107052
v 6.0629320 1.2145751 20.0209178
v 6.0629320 1.3696501 19.6557617
v 6.0629320 1.4230851 19.2509842
v 2.7252828 1.3696501 18.8462066
v 2.7252828 1.2145751 18.4810505
v 2.7252828 0.9730401 18.1912614
v 2.7252828 0.6686880 18.0052052
v 2.7252828 0.3313110 17.9410954
v 2.7252828 0.3313110 20.5608713
v 2.7252828 0.6686880 20.4967615
v 2.7252828 0.9730401 20.3107052
v 2.7252828 1.2145751 20.0209178
v 2.7252828 1.3696501 19.6557617
v 2.7252828 1.4230851 19.2509842
v 5.3585472 1.3696501 18.8462066
v 5.3585472 1.2145751 18.4810505
v 5.3585472 0.9730401 18.1912614
v 5.3585472 0.6686880 18.0052052
v 5.3585472 0.3313110 17.9410954
v 5.3585472 0.3313110 20.5608713
v 5.3585472 0.6686880 20.4967615
v 5.3585472 0.9730401 20.3107052
v 5.3585472 1.2145751 20.0209178
v 5.3585472 1.3696501 19.6557617
v 5.3585472 1.4230851 19.2509842
v 3.4296688 1.3696501 18.8462066
v 3.4296688 1.2145751 18.4810505
v 3.4296688 0.9730401 18.1912614
v 3.4296688 0.6686880 18.0052052
v 3.4296688 0.3313110 17.9410954
v 3.4296688 0.3313110 20.5608713
v 3.4296688 0.6686880 20.4967615
v 3.4296688 0.9730401 20.3107052
v 3.4296688 1.2145751 20.0209178
v 3.4296688 1.3696501 19.6557617
v 3.4296688 1.4230851 19.2509842
# 168 normals
vn 0.000000 0.965147 -0.261307
vn 0.000000 0.855368 -0.517915
vn 0.000000 0.855368 -0.517915
vn 0.000000 0.965147 -0.261307
vn 0.000000 0.657084 -0.753800
vn 0.000000 0.657084 -0.753800
vn 0.000000 0.363181 -0.931636
vn 0.000000 0.363181 -0.931636
vn 0.000000 0.186657 -0.982390
vn 0.000000 0.186657 -0.982390
vn 0.000000 0.186657 0.982390
vn 0.000000 0.363181 0.931636
vn 0.000000 0.363181 0.931636
vn 0.000000 0.186657 0.982390
vn 0.000000 0.657084 0.753800
vn 0.000000 0.657084 0.753800
vn 0.000000 0.855368 0.517915
vn 0.000000 0.855368 0.517915
vn 0.000000 0.965147 0.261338
vn 0.000000 0.965147 0.261338
vn 0.000000 1.000000 0.000000
vn 0.000000 1.000000 0.000000
vn 1.000000 0.000000 0.000000
vn 1.000000 0.000000 0.000000
vn 1.000000 0.000000 0.000000
vn 1.000000 0.000000 0.000000
vn 1.000000 0.000000 0.000000
vn 1.000000 0.000000 0.000000
vn 1.000000 0.000000 0.000000
vn 1.000000 0.000000 0.000000
vn 1.000000 0.000000 0.000000
vn 1.000000 0.000000 0.000000
vn 1.000000 0.000000 0.000000
vn 1.000000 0.000000 0.000000
vn 1.000000 0.000000 0.000000
vn 1.000000 0.000000 0.000000
vn 1.000000 0.000000 0.000000
vn 1.000000 0.000000 0.000000
vn 1.000000 0.000000 0.000000
vn 1.000000 0.000000 0.000000
vn 1.000000 0.000000 0.000000
vn 1.000000 0.000000 0.000000
vn 1.000000 0.000000 0.000000
vn 1.000000 0.000000 0.000000
vn -1.000000 0.000000 0.000000
vn -1.000000 0.000000 0.000000
vn -1.000000 0.000000 0.000000
vn -1.000000 0.000000 0.000000
vn -1.000000 0.000000 0.000000
vn -1.000000 0.000000 0.000000
vn -1.000000 0.000000 0.000000
vn -1.000000 0.000000 0.000000
vn -1.000000 0.000000 0.000000
vn -1.000000 0.000000 0.000000
vn -1.000000 0.000000 0.000000
vn -1.000000 0.000000 0.000000
vn -1.000000 0.000000 0.000000
vn -1.000000 0.000000 0.000000
vn -1.000000 0.000000 0.000000
vn -1.000000 0.000000 0.000000
vn -1.000000 0.000000 0.000000
vn -1.000000 0.000000 0.000000
vn -1.000000 0.000000 0.000000
vn -1.000000 0.000000 0.000000
vn -1.000000 0.000000 0.000000
vn -1.000000 0.000000 0.000000
vn 0.000000 -0.855368 0.517915
vn 0.000000 -0.965147 0.261307
vn 0.000000 -0.965147 0.261307
vn 0.000000 -0.855368 0.517915
vn 0.000000 -0.657084 0.753800
vn 0.000000 -0.657084 0.753800
vn 0.000000 -0.363181 0.931636
vn 0.000000 -0.363181 0.931636
vn 0.000000 -0.186657 0.982390
vn 0.000000 -0.186657 0.982390
vn 0.000000 -0.363181 -0.931636
vn 0.000000 -0.186657 -0.982390
vn 0.000000 -0.186657 -0.982390
vn 0.000000 -0.363181 -0.931636
vn 0.000000 -0.657084 -0.753800
vn 0.000000 -0.657084 -0.753800
vn 0.000000 -0.855368 -0.517915
vn 0.000000 -0.855368 -0.517915
vn 0.000000 -0.965147 -0.261338
vn 0.000000 -0.965147 -0.261338
vn 0.000000 -1.000000 0.000000
vn 0.000000 -1.000000 0.000000
vn 0.000000 -0.965147 0.261307
vn 0.000000 -0.855368 0.517915
vn 0.000000 -0.855368 0.517915
vn 0.000000 -0.965147 0.261307
vn 0.000000 -0.657084 0.753800
vn 0.000000 -0.657084 0.753800
vn 0.000000 -0.363181 0.931636
vn 0.000000 -0.363181 0.931636
vn 0.000000 -0.186657 0.982390
vn 0.000000 -0.186657 0.982390
vn 0.000000 -0.186657 -0.982390
vn 0.000000 -0.363181 -0.931636
vn 0.000000 -0.363181 -0.931636
vn 0.000000 -0.186657 -0.982390
vn 0.000000 -0.657084 -0.753800
vn 0.000000 -0.657084 -0.753800
vn 0.000000 -0.855368 -0.517915
vn 0.000000 -0.855368 -0.517915
vn 0.000000 -0.965147 -0.261338
vn 0.000000 -0.965147 -0.261338
vn 0.000000 -1.000000 0.000000
vn 0.000000 -1.000000 0.000000
vn 0.000000 -0.186657 0.982390
vn 0.000000 -0.186657 0.982390
vn 0.000000 -0.186657 0.982390
vn 0.000000 -0.186657 0.982390
vn 0.000000 -0.521516 0.853201
vn 0.000000 -0.521516 0.853201
vn 0.000000 -0.521516 0.853201
vn 0.000000 -0.521516 0.853201
vn 0.000000 -0.186657 -0.982390
vn 0.000000 -0.186657 -0.982390
vn 0.000000 -0.186657 -0.982390
vn 0.000000 -0.186657 -0.982390
vn 0.000000 -0.521516 -0.853201
vn 0.000000 -0.521516 -0.853201
vn 0.000000 -0.521516 -0.853201
vn 0.000000 -0.521516 -0.853201
vn 0.000000 -0.768144 -0.640237
vn 0.000000 -0.768144 -0.640237
vn 0.000000 -0.768144 -0.640237
vn 0.000000 -0.768144 -0.640237
vn 0.000000 -0.920436 -0.390893
vn 0.000000 -0.920436 -0.390893
vn 0.000000 -0.920436 -0.390893
vn 0.000000 -0.920436 -0.390893
vn 0.000000 -0.991332 -0.130837
vn 0.000000 -0.991332 -0.130837
vn 0.000000 -0.991332 -0.130837
vn 0.000000 -0.991332 -0.130837
vn 0.000000 -0.991332 0.130837
vn 0.000000 -0.991332 0.130837
vn 0.000000 -0.991332 0.130837
vn 0.000000 -0.991332 0.130837
vn 0.000000 -0.920436 0.390893
vn 0.000000 -0.920436 0.390893
vn 0.000000 -0.920436 0.390893
vn 0.000000 -0.920436 0.390893
vn 0.000000 -0.768144 0.640237
vn 0.000000 -0.768144 0.640237
vn 0.000000 -0.768144 0.640237
vn 0.000000 -0.768144 0.640237
vn 0.000000 -1.000000 0.000000
vn 0.000000 -1.000000 0.000000
vn 0.000000 -1.000000 0.000000
vn 0.000000 -1.000000 0.000000
vn 0.000000 -1.000000 0.000000
vn 0.000000 -1.000000 0.000000
vn 0.000000 -1.000000 0.000000
vn 0.000000 -1.000000 0.000000
vn 0.000000 -1.000000 0.000000
vn 0.000000 -1.000000 0.000000
vn 0.000000 -1.000000 0.000000
vn 0.000000 -1.000000 0.000000
vn 0.000000 -1.000000 0.000000
vn 0.000000 -1.000000 0.000000
vn 0.000000 -1.000000 0.000000
vn 0.000000 -1.000000 0.000000
vn 0.000000 -1.000000 0.000000
vn 0.000000 -1.000000 0.000000
# 100 uv coords
vt 0.957889 0.228472
vt 0.958383 0.171968
vt 0.958709 0.117613
vt 0.957325 0.066107
vt 0.957233 0.506279
vt 0.958638 0.454774
vt 0.958335 0.400421
vt 0.957865 0.343916
vt 0.957692 0.286195
vt 0.501543 0.228378
vt 0.501072 0.171873
vt 0.500769 0.117519
vt 0.502173 0.066013
vt 0.502081 0.506184
vt 0.500699 0.454679
vt 0.501025 0.400326
vt 0.501518 0.343822
vt 0.501716 0.286100
vt 0.861587 0.229012
vt 0.861772 0.173689
vt 0.861816 0.121577
vt 0.861129 0.072973
vt 0.861041 0.499374
vt 0.861748 0.450771
vt 0.861726 0.398660
vt 0.861563 0.343338
vt 0.861499 0.286175
vt 0.597843 0.228956
vt 0.597681 0.173633
vt 0.597659 0.121522
vt 0.598365 0.072919
vt 0.598277 0.499320
vt 0.597591 0.450716
vt 0.597634 0.398605
vt 0.597820 0.343282
vt 0.597907 0.286120
vt 0.463387 0.406028
vt 0.465602 0.347099
vt 0.993780 0.347209
vt 0.995971 0.406139
vt 0.466412 0.286092
vt 0.460720 0.461962
vt 0.992995 0.286202
vt 0.998613 0.462075
vt 0.859305 0.545987
vt 0.599993 0.545934
vt 0.465628 0.225086
vt 0.460516 0.516139
vt 0.508490 0.553785
vt 0.993806 0.225195
vt 0.998794 0.516251
vt 0.950805 0.553877
vt 0.463437 0.166155
vt 0.471260 0.570622
vt 0.996020 0.166265
vt 0.988028 0.570730
vt 0.460793 0.110219
vt 0.600100 0.026305
vt 0.859413 0.026359
vt 0.998688 0.110329
vt 0.460612 0.056042
vt 0.508601 0.018415
vt 0.950917 0.018507
vt 0.998891 0.056153
vt 0.471378 0.001564
vt 0.988146 0.001670
vt 0.001564 0.456539
vt 0.001564 0.389374
vt 0.457345 0.389374
vt 0.457345 0.456539
vt 0.001564 0.320250
vt 0.457345 0.320250
vt 0.001564 0.520407
vt 0.457345 0.520407
vt 0.001564 0.251126
vt 0.457345 0.251126
vt 0.001564 0.580798
vt 0.457345 0.580798
vt 0.001564 0.183961
vt 0.457345 0.183961
vt 0.001564 0.638936
vt 0.457345 0.638936
vt 0.001564 0.120093
vt 0.457345 0.120093
vt 0.001564 0.059702
vt 0.457345 0.059702
vt 0.001564 0.001564
vt 0.457345 0.001564
vt 0.097753 0.688981
vt 0.361157 0.688855
vt 0.457365 0.731696
vt 0.001585 0.731910
vt 0.001564 0.689027
vt 0.457348 0.688819
vt 0.361162 0.685583
vt 0.097755 0.685584
vt 0.001571 0.642691
vt 0.457346 0.642690
vt 0.001564 0.685568
vt 0.457353 0.685567
# 65 polygons
usemtl initialShadingGroup
s 1
g pCylinder7
f 1/75/1 2/79/2 13/80/3 12/76/4
f 2/79/2 3/83/5 14/84/6 13/80/3
f 3/83/5 4/85/7 15/86/8 14/84/6
f 4/85/7 5/87/9 16/88/10 15/86/8
f 6/81/11 7/77/12 18/78/13 17/82/14
f 7/77/12 8/73/15 19/74/16 18/78/13
f 8/73/15 9/67/17 20/70/18 19/74/16
f 9/67/17 10/68/19 21/69/20 20/70/18
f 10/68/19 11/71/21 22/72/22 21/69/20
f 11/71/21 1/75/1 12/76/4 22/72/22
s 3
f 2/55/23 1/50/24 23/1/25 24/2/26
f 3/60/27 2/55/23 24/2/26 25/3/28
f 4/64/29 3/60/27 25/3/28 26/4/30
f 5/66/31 4/64/29 26/4/30 27/63/32
f 7/51/33 6/56/34 28/52/35 29/5/36
f 8/44/37 7/51/33 29/5/36 30/6/38
f 9/40/39 8/44/37 30/6/38 31/7/40
f 10/39/41 9/40/39 31/7/40 32/8/42
f 11/43/43 10/39/41 32/8/42 33/9/44
f 1/50/24 11/43/43 33/9/44 23/1/25
s 5
f 12/47/45 13/53/46 35/11/47 34/10/48
f 13/53/46 14/57/49 36/12/50 35/11/47
f 14/57/49 15/61/51 37/13/52 36/12/50
f 15/61/51 16/65/53 38/62/54 37/13/52
f 17/54/55 18/48/56 40/14/57 39/49/58
f 18/48/56 19/42/59 41/15/60 40/14/57
f 19/42/59 20/37/61 42/16/62 41/15/60
f 20/37/61 21/38/63 43/17/64 42/16/62
f 21/38/63 22/41/65 44/18/66 43/17/64
f 22/41/65 12/47/45 34/10/48 44/18/66
s 7
f 24/2/67 23/1/68 45/19/69 46/20/70
f 25/3/71 24/2/67 46/20/70 47/21/72
f 26/4/73 25/3/71 47/21/72 48/22/74
f 27/63/75 26/4/73 48/22/74 49/59/76
f 29/5/77 28/52/78 50/45/79 51/23/80
f 30/6/81 29/5/77 51/23/80 52/24/82
f 31/7/83 30/6/81 52/24/82 53/25/84
f 32/8/85 31/7/83 53/25/84 54/26/86
f 33/9/87 32/8/85 54/26/86 55/27/88
f 23/1/68 33/9/87 55/27/88 45/19/69
s 9
f 34/10/89 35/11/90 57/29/91 56/28/92
f 35/11/90 36/12/93 58/30/94 57/29/91
f 36/12/93 37/13/95 59/31/96 58/30/94
f 37/13/95 38/62/97 60/58/98 59/31/96
f 39/49/99 40/14/100 62/32/101 61/46/102
f 40/14/100 41/15/103 63/33/104 62/32/101
f 41/15/103 42/16/105 64/34/106 63/33/104
f 42/16/105 43/17/107 65/35/108 64/34/106
f 43/17/107 44/18/109 66/36/110 65/35/108
f 44/18/109 34/10/89 56/28/92 66/36/110
s off
f 49/59/111 48/22/112 59/31/113 60/58/114
f 58/30/115 59/31/116 48/22/117 47/21/118
f 61/46/119 62/32/120 51/23/121 50/45/122
f 62/32/123 63/33/124 52/24/125 51/23/126
f 63/33/127 64/34/128 53/25/129 52/24/130
f 64/34/131 65/35/132 54/26/133 53/25/134
f 65/35/135 66/36/136 55/27/137 54/26/138
f 66/36/139 56/28/140 45/19/141 55/27/142
f 56/28/143 57/29/144 46/20/145 45/19/146
f 57/29/147 58/30/148 47/21/149 46/20/150
f 61/89/151 50/90/152 6/91/153 17/92/154 39/93/155
f 50/90/156 28/94/157 6/91/158
f 49/95/159 60/96/160 16/97/161 5/98/162
f 60/96/163 38/99/164 16/97/165
f 49/95/166 5/98/167 27/100/168
# h3dt: 66 100 168 65
