# author: headus 3D tools
#  using: ply2obj v1.11
#   from: uvlayout v2.10.03
# 40 vertices
v 4.7842612 0.3129190 6.9448562
v 5.0847010 0.4419140 6.6952901
v 4.7925581 0.3632340 6.9808512
v 5.0929980 0.4922290 6.7312852
v 3.2012391 1.5553360 5.6813131
v 3.5016790 1.6843311 5.4317469
v 3.1929416 1.5050202 5.6453171
v 3.4933819 1.6340149 5.3957510
v 3.3932348 1.5910170 5.4789401
v 4.9845537 0.3989149 6.7784782
v 4.9928506 0.4492310 6.8144742
v 3.4015327 1.6413331 5.5149348
v 3.2930887 1.5480190 5.5621278
v 4.8844079 0.3559169 6.8616672
v 4.8927049 0.4062330 6.8976632
v 3.3013860 1.5983340 5.5981238
v 3.2805951 1.4722540 5.5079269
v 3.3807422 1.5152531 5.4247379
v 4.9720601 0.3231510 6.7242771
v 4.8719138 0.2801531 6.8074652
v 3.1703579 1.3531410 5.5368490
v 3.4707978 1.4821360 5.2872830
v 3.1620609 1.3028260 5.5008539
v 3.4625008 1.4318210 5.2512878
v 4.7533798 0.1107241 6.8003922
v 5.0538201 0.2397191 6.5508261
v 4.7616768 0.1610391 6.8363882
v 5.0621170 0.2900351 6.5868221
v 4.9619707 0.2470361 6.6700111
v 3.3706518 1.4391380 5.3704720
v 3.3623551 1.3888221 5.3344760
v 4.9536728 0.1967211 6.6340151
v 4.8618240 0.2040380 6.7531992
v 3.2705049 1.3961402 5.4536610
v 3.2622080 1.3458240 5.4176648
v 4.8535270 0.1537221 6.7172042
v 4.8743180 0.2798022 6.8074013
v 4.9744639 0.3228010 6.7242122
v 3.3831460 1.5149019 5.4246738
v 3.2829989 1.4719040 5.5078622
# 112 normals
vn 0.669902 -0.501862 0.547000
vn 0.669902 -0.501862 0.547030
vn 0.669902 -0.501862 0.547030
vn 0.669902 -0.501862 0.547000
vn 0.132851 0.806018 0.576665
vn 0.132851 0.806018 0.576665
vn 0.132851 0.806018 0.576665
vn 0.132851 0.806018 0.576665
vn -0.669902 0.501862 -0.547030
vn -0.669902 0.501862 -0.547030
vn -0.669902 0.501862 -0.547030
vn -0.669902 0.501862 -0.547030
vn -0.132851 -0.806018 -0.576665
vn -0.132851 -0.806018 -0.576665
vn -0.132851 -0.806018 -0.576665
vn -0.132851 -0.806018 -0.576665
vn 0.730422 0.313526 -0.606665
vn 0.730422 0.313526 -0.606665
vn 0.730422 0.313526 -0.606665
vn 0.730422 0.313526 -0.606665
vn -0.730422 -0.313526 0.606665
vn -0.730422 -0.313526 0.606665
vn -0.730422 -0.313526 0.606665
vn -0.730422 -0.313526 0.606665
vn -0.132851 -0.806018 -0.576665
vn -0.132851 -0.806018 -0.576665
vn -0.132851 -0.806018 -0.576665
vn -0.132851 -0.806018 -0.576665
vn 0.669902 -0.501862 0.547030
vn 0.669902 -0.501862 0.547030
vn 0.669902 -0.501862 0.547030
vn 0.669902 -0.501862 0.547030
vn 0.132851 0.806018 0.576665
vn 0.132851 0.806018 0.576665
vn 0.132851 0.806018 0.576665
vn 0.132851 0.806018 0.576665
vn -0.669902 0.501862 -0.547030
vn -0.669902 0.501862 -0.547030
vn -0.669902 0.501862 -0.547030
vn -0.669902 0.501862 -0.547030
vn -0.132851 -0.806018 -0.576665
vn -0.132851 -0.806018 -0.576665
vn -0.132851 -0.806018 -0.576665
vn -0.132851 -0.806018 -0.576665
vn -0.669902 0.501862 -0.547030
vn -0.669902 0.501862 -0.547030
vn 0.730422 0.313526 -0.606665
vn 0.730422 0.313526 -0.606665
vn 0.730422 0.313526 -0.606665
vn 0.730422 0.313526 -0.606665
vn 0.669902 -0.501862 0.547030
vn 0.669902 -0.501862 0.547030
vn -0.730422 -0.313526 0.606665
vn -0.730422 -0.313526 0.606665
vn -0.730422 -0.313526 0.606665
vn -0.730422 -0.313526 0.606665
vn -0.669902 0.501862 -0.547030
vn -0.669902 0.501862 -0.547030
vn -0.669902 0.501862 -0.547030
vn -0.669902 0.501862 -0.547030
vn -0.132851 -0.806018 -0.576665
vn -0.132851 -0.806018 -0.576665
vn -0.132851 -0.806018 -0.576665
vn -0.132851 -0.806018 -0.576665
vn 0.669902 -0.501862 0.547000
vn 0.669902 -0.501862 0.547030
vn 0.669902 -0.501862 0.547030
vn 0.669902 -0.501862 0.547000
vn 0.132851 0.806018 0.576665
vn 0.132851 0.806018 0.576665
vn 0.132851 0.806018 0.576665
vn 0.132851 0.806018 0.576665
vn 0.730422 0.313526 -0.606665
vn 0.730422 0.313526 -0.606665
vn 0.730422 0.313526 -0.606665
vn 0.730422 0.313526 -0.606665
vn -0.730422 -0.313526 0.606665
vn -0.730422 -0.313526 0.606665
vn -0.730422 -0.313526 0.606665
vn -0.730422 -0.313526 0.606665
vn 0.132851 0.806018 0.576665
vn 0.132851 0.806018 0.576665
vn 0.132851 0.806018 0.576665
vn 0.132851 0.806018 0.576665
vn -0.669902 0.501862 -0.547030
vn -0.669902 0.501862 -0.547030
vn -0.669902 0.501862 -0.547030
vn -0.669902 0.501862 -0.547030
vn -0.132851 -0.806018 -0.576665
vn -0.132851 -0.806018 -0.576665
vn -0.132851 -0.806018 -0.576665
vn -0.132851 -0.806018 -0.576665
vn 0.669902 -0.501862 0.547030
vn 0.669902 -0.501862 0.547030
vn 0.669902 -0.501862 0.547030
vn 0.669902 -0.501862 0.547030
vn 0.132851 0.806018 0.576665
vn 0.132851 0.806018 0.576665
vn 0.132851 0.806018 0.576665
vn 0.132851 0.806018 0.576665
vn 0.669902 -0.501862 0.547030
vn 0.669902 -0.501862 0.547030
vn 0.730422 0.313526 -0.606665
vn 0.730422 0.313526 -0.606665
vn 0.730422 0.313526 -0.606665
vn 0.730422 0.313526 -0.606665
vn -0.669902 0.501862 -0.547030
vn -0.669902 0.501862 -0.547030
vn -0.730422 -0.313526 0.606665
vn -0.730422 -0.313526 0.606665
vn -0.730422 -0.313526 0.606665
vn -0.730422 -0.313526 0.606665
# 72 uv coords
vt 0.719749 0.950296
vt 0.727206 0.026648
vt 0.773063 0.950716
vt 0.780523 0.027067
vt 0.456961 0.026606
vt 0.453843 0.950281
vt 0.403671 0.026413
vt 0.400500 0.950088
vt 0.826195 0.975407
vt 0.772879 0.974988
vt 0.826383 0.951138
vt 0.780705 0.002796
vt 0.834019 0.003212
vt 0.833831 0.027487
vt 0.850675 0.951330
vt 0.858083 0.027679
vt 0.719565 0.974569
vt 0.727389 0.002376
vt 0.911390 0.028103
vt 0.903998 0.951755
vt 0.666253 0.974146
vt 0.666447 0.949872
vt 0.649592 0.026034
vt 0.673879 0.026223
vt 0.642191 0.949684
vt 0.674073 0.001953
vt 0.596287 0.025607
vt 0.588867 0.949256
vt 0.128366 0.038266
vt 0.133855 0.961928
vt 0.097313 0.962144
vt 0.091809 0.038481
vt 0.097456 0.998711
vt 0.044140 0.998950
vt 0.043997 0.962421
vt 0.007440 0.962636
vt 0.001953 0.038973
vt 0.038494 0.038759
vt 0.038352 0.002190
vt 0.091667 0.001953
vt 0.266127 0.038577
vt 0.265087 0.962256
vt 0.228561 0.962220
vt 0.229555 0.038540
vt 0.228669 0.998732
vt 0.175351 0.998828
vt 0.175245 0.962243
vt 0.138672 0.962205
vt 0.139714 0.038526
vt 0.176240 0.038563
vt 0.176133 0.002051
vt 0.229448 0.001953
vt 0.403755 0.002139
vt 0.457055 0.002331
vt 0.453747 0.974551
vt 0.400416 0.974358
vt 0.350446 0.001953
vt 0.350366 0.026224
vt 0.347092 0.974171
vt 0.347174 0.949898
vt 0.326124 0.026136
vt 0.322872 0.949811
vt 0.510361 0.002530
vt 0.510247 0.026798
vt 0.531485 0.950555
vt 0.507186 0.950471
vt 0.534493 0.026879
vt 0.507073 0.974751
vt 0.269531 0.949619
vt 0.272833 0.025945
vt 0.584802 0.950730
vt 0.587808 0.027055
# 36 polygons
usemtl initialShadingGroup
s 1
g pCube17
f 1/9/1 14/10/2 15/3/3 3/11/4
s 2
f 3/11/5 15/3/6 16/4/7 5/14/8
s 3
f 5/14/9 16/4/10 13/12/11 7/13/12
s off
f 7/16/13 13/19/14 14/20/15 1/15/16
f 2/25/17 8/23/18 6/24/19 4/22/20
f 7/16/21 1/15/22 3/11/23 5/14/24
f 9/27/25 8/23/26 2/25/27 10/28/28
s 1
f 11/1/29 10/17/30 2/21/31 4/22/32
s 2
f 12/2/33 11/1/34 4/22/35 6/24/36
s 3
f 9/18/37 12/2/38 6/24/39 8/26/40
s off
f 17/31/41 18/35/42 19/38/43 20/32/44
s 1
f 15/3/3 14/10/2 10/17/30 11/1/29
s 2
f 16/4/7 15/3/6 11/1/34 12/2/33
s 3
f 13/12/11 16/4/10 12/2/38 9/18/37
f 13/33/11 9/34/37 18/35/45 17/31/46
s off
f 9/36/47 10/37/48 19/38/49 18/35/50
s 1
f 10/39/30 14/40/2 20/32/51 19/38/52
s off
f 14/29/53 13/30/54 17/31/55 20/32/56
s 4
f 21/57/57 34/53/58 35/7/59 23/58/60
s 5
f 23/58/61 35/7/62 36/8/63 25/60/64
s 6
f 25/60/65 36/8/66 33/56/67 27/59/68
s off
f 27/62/69 33/69/70 34/70/71 21/61/72
f 22/67/73 28/65/74 26/66/75 24/64/76
f 27/62/77 21/61/78 23/58/79 25/60/80
f 29/71/81 28/65/82 22/67/83 30/72/84
s 4
f 31/5/85 30/54/86 22/63/87 24/64/88
s 5
f 32/6/89 31/5/90 24/64/91 26/66/92
s 6
f 29/55/93 32/6/94 26/66/95 28/68/96
s off
f 37/43/97 38/47/98 39/50/99 40/44/100
s 4
f 35/7/59 34/53/58 30/54/86 31/5/85
s 5
f 36/8/63 35/7/62 31/5/90 32/6/89
s 6
f 33/56/67 36/8/66 32/6/94 29/55/93
f 33/45/67 29/46/93 38/47/101 37/43/102
s off
f 29/48/103 30/49/104 39/50/105 38/47/106
s 4
f 30/51/86 34/52/58 40/44/107 39/50/108
s off
f 34/41/109 33/42/110 37/43/111 40/44/112
# h3dt: 40 72 112 36
