# author: headus 3D tools
#  using: ply2obj v1.11
#   from: uvlayout v2.10.03
# 24 vertices
v 2.632872 2.366126 12.452006
v 2.594138 2.372260 12.452006
v 2.559194 2.390064 12.452006
v 2.531463 2.417796 12.452006
v 2.513657 2.452740 12.452006
v 2.507521 2.491474 12.452006
v 2.513657 2.530209 12.452006
v 2.531463 2.565154 12.452006
v 2.559194 2.592884 12.452006
v 2.594138 2.610690 12.452006
v 2.632872 2.616825 12.452006
v 2.632872 2.366126 -0.116093
v 2.594138 2.372260 -0.116093
v 2.559194 2.390064 -0.116093
v 2.531463 2.417796 -0.116093
v 2.513657 2.452740 -0.116093
v 2.507521 2.491474 -0.116093
v 2.513657 2.530209 -0.116093
v 2.531463 2.565154 -0.116093
v 2.559194 2.592884 -0.116093
v 2.594138 2.610690 -0.116093
v 2.632872 2.616825 -0.116093
v 2.632872 2.491474 12.452006
v 2.632872 2.491474 -0.116093
# 46 normals
vn -0.156412 -0.987609 0.000000
vn -0.309009 -0.951047 0.000000
vn -0.309009 -0.951047 0.000000
vn -0.156412 -0.987609 0.000000
vn -0.587774 -0.808948 0.000000
vn -0.587774 -0.808948 0.000000
vn -0.808948 -0.587774 0.000000
vn -0.808948 -0.587774 0.000000
vn -0.951047 -0.309009 0.000000
vn -0.951047 -0.309009 0.000000
vn -1.000000 0.000000 0.000000
vn -1.000000 0.000000 0.000000
vn -0.951047 0.309009 0.000000
vn -0.951047 0.309009 0.000000
vn -0.808948 0.587774 0.000000
vn -0.808948 0.587774 0.000000
vn -0.587774 0.808948 0.000000
vn -0.587774 0.808948 0.000000
vn -0.309009 0.951047 0.000000
vn -0.309009 0.951047 0.000000
vn -0.156412 0.987609 0.000000
vn -0.156412 0.987609 0.000000
vn 0.000000 0.000000 1.000000
vn 0.000000 0.000000 1.000000
vn 0.000000 0.000000 1.000000
vn 0.000000 0.000000 1.000000
vn 0.000000 0.000000 1.000000
vn 0.000000 0.000000 1.000000
vn 0.000000 0.000000 1.000000
vn 0.000000 0.000000 1.000000
vn 0.000000 0.000000 1.000000
vn 0.000000 0.000000 1.000000
vn 0.000000 0.000000 1.000000
vn 0.000000 0.000000 1.000000
vn 0.000000 0.000000 -1.000000
vn 0.000000 0.000000 -1.000000
vn 0.000000 0.000000 -1.000000
vn 0.000000 0.000000 -1.000000
vn 0.000000 0.000000 -1.000000
vn 0.000000 0.000000 -1.000000
vn 0.000000 0.000000 -1.000000
vn 0.000000 0.000000 -1.000000
vn 0.000000 0.000000 -1.000000
vn 0.000000 0.000000 -1.000000
vn 0.000000 0.000000 -1.000000
vn 0.000000 0.000000 -1.000000
# 46 uv coords
vt 0.988498 0.005782
vt 0.991254 0.004378
vt 0.994310 0.003895
vt 0.994307 0.013781
vt 0.986310 0.007969
vt 0.984905 0.010725
vt 0.984421 0.013781
vt 0.984905 0.016837
vt 0.986310 0.019593
vt 0.988498 0.021780
vt 0.991254 0.023184
vt 0.994309 0.023668
vt 0.044732 0.990382
vt 0.043327 0.987626
vt 0.042843 0.984570
vt 0.046920 0.992569
vt 0.043327 0.981515
vt 0.049677 0.993973
vt 0.044732 0.978758
vt 0.052732 0.994456
vt 0.052730 0.984570
vt 0.046920 0.976571
vt 0.049676 0.975167
vt 0.052732 0.974684
vt 0.025551 0.995157
vt 0.022457 0.995157
vt 0.022457 0.003895
vt 0.025551 0.003895
vt 0.019363 0.995157
vt 0.019363 0.003895
vt 0.028645 0.995157
vt 0.028645 0.003895
vt 0.016269 0.995157
vt 0.016269 0.003895
vt 0.031738 0.995157
vt 0.031738 0.003895
vt 0.013175 0.995157
vt 0.013175 0.003895
vt 0.034831 0.995157
vt 0.034831 0.003895
vt 0.010082 0.995157
vt 0.010082 0.003895
vt 0.006988 0.995157
vt 0.006988 0.003895
vt 0.003895 0.995157
vt 0.003895 0.003895
# 30 polygons
usemtl initialShadingGroup
s 1
g pCylinder10
f 1/39/1 2/35/2 13/36/3 12/40/4
f 2/35/2 3/31/5 14/32/6 13/36/3
f 3/31/5 4/25/7 15/28/8 14/32/6
f 4/25/7 5/26/9 16/27/10 15/28/8
f 5/26/9 6/29/11 17/30/12 16/27/10
f 6/29/11 7/33/13 18/34/14 17/30/12
f 7/33/13 8/37/15 19/38/16 18/34/14
f 8/37/15 9/41/17 20/42/18 19/38/16
f 9/41/17 10/43/19 21/44/20 20/42/18
f 10/43/19 11/45/21 22/46/22 21/44/20
s 2
f 2/2/23 1/3/24 23/4/25
f 3/1/26 2/2/23 23/4/25
f 4/5/27 3/1/26 23/4/25
f 5/6/28 4/5/27 23/4/25
f 6/7/29 5/6/28 23/4/25
f 7/8/30 6/7/29 23/4/25
f 8/9/31 7/8/30 23/4/25
f 9/10/32 8/9/31 23/4/25
f 10/11/33 9/10/32 23/4/25
f 11/12/34 10/11/33 23/4/25
s 3
f 12/20/35 13/18/36 24/21/37
f 13/18/36 14/16/38 24/21/37
f 14/16/38 15/13/39 24/21/37
f 15/13/39 16/14/40 24/21/37
f 16/14/40 17/15/41 24/21/37
f 17/15/41 18/17/42 24/21/37
f 18/17/42 19/19/43 24/21/37
f 19/19/43 20/22/44 24/21/37
f 20/22/44 21/23/45 24/21/37
f 21/23/45 22/24/46 24/21/37
# h3dt: 24 46 46 30
