# author: headus 3D tools
#  using: ply2obj v1.11
#   from: uvlayout v2.10.03
# 56 vertices
v -2.3062000 4.9370012 -5.2930789
v 0.6135852 4.9370012 -5.2930789
v -2.3062000 5.2503719 -5.2930789
v 0.6135852 5.2503719 -5.2930789
v -2.3062000 5.2503719 -5.3852410
v 0.6135852 5.2503719 -5.3852410
v -2.3062000 4.9370012 -5.3852410
v 0.6135852 4.9370012 -5.3852410
v -2.3062000 4.9370012 -4.9697671
v 0.6135852 4.9370012 -4.9697671
v -2.3062000 5.2503719 -4.9697671
v 0.6135852 5.2503719 -4.9697671
v -2.3062000 5.2503719 -5.0619278
v 0.6135852 5.2503719 -5.0619278
v -2.3062000 4.9370012 -5.0619278
v 0.6135852 4.9370012 -5.0619278
v -0.3600480 2.5679390 -5.0017128
v 1.1704796 2.8490540 -5.0017128
v -0.7922840 4.9944438 -5.1868701
v 0.7382440 5.2755589 -5.1868701
v -0.7922840 4.9944438 -5.2685252
v 0.7382440 5.2755589 -5.2685252
v -0.3600480 2.5679390 -5.0833679
v 1.1704796 2.8490540 -5.0833679
v 0.8076354 4.8245568 -5.0017128
v -0.7228930 4.5434419 -5.0017128
v -0.7228930 4.5434419 -5.0833679
v 0.8076354 4.8245568 -5.0833679
v -2.3693039 2.7949408 -5.0183530
v -0.8131740 2.7949408 -5.0183530
v -2.3560800 5.2596068 -5.2035099
v -0.7999499 5.2596068 -5.2035099
v -2.3560800 5.2596068 -5.2851658
v -0.7999499 5.2596068 -5.2851658
v -2.3693039 2.7949408 -5.1000090
v -0.8131740 2.7949408 -5.1000090
v -0.8131740 4.8034902 -5.0183530
v -2.3693039 4.8034902 -5.0183530
v -2.3693039 4.8034902 -5.1000090
v -0.8131740 4.8034902 -5.1000090
v -2.3679508 2.7949408 -7.4261607
v 0.6320492 2.7949408 -7.4261607
v -2.3679508 5.2949418 -7.4261607
v 0.6320492 5.2949418 -7.4261607
v -2.3679508 5.2949418 -8.3041011
v 0.6320492 5.2949418 -8.3041011
v -2.3679508 2.7949408 -8.3041011
v 0.6320492 2.7949408 -8.3041011
v -1.6012840 3.1474508 -7.4261607
v -0.1346170 3.1474508 -7.4261607
v -0.1346170 4.9424318 -7.4261607
v -1.6012840 4.9424318 -7.4261607
v -1.6012840 3.1474508 -7.6640869
v -0.1346170 3.1474508 -7.6640869
v -0.1346170 4.9424318 -7.6640869
v -1.6012840 4.9424318 -7.6640869
# 160 normals
vn 0.000000 0.000000 1.000000
vn 0.000000 0.000000 1.000000
vn 0.000000 0.000000 1.000000
vn 0.000000 0.000000 1.000000
vn 0.000000 1.000000 0.000000
vn 0.000000 1.000000 0.000000
vn 0.000000 1.000000 0.000000
vn 0.000000 1.000000 0.000000
vn 0.000000 0.000000 -1.000000
vn 0.000000 0.000000 -1.000000
vn 0.000000 0.000000 -1.000000
vn 0.000000 0.000000 -1.000000
vn 0.000000 -1.000000 0.000000
vn 0.000000 -1.000000 0.000000
vn 0.000000 -1.000000 0.000000
vn 0.000000 -1.000000 0.000000
vn 1.000000 0.000000 0.000000
vn 1.000000 0.000000 0.000000
vn 1.000000 0.000000 0.000000
vn 1.000000 0.000000 0.000000
vn -1.000000 0.000000 0.000000
vn -1.000000 0.000000 0.000000
vn -1.000000 0.000000 0.000000
vn -1.000000 0.000000 0.000000
vn 0.000000 0.000000 1.000000
vn 0.000000 0.000000 1.000000
vn 0.000000 0.000000 1.000000
vn 0.000000 0.000000 1.000000
vn 0.000000 1.000000 0.000000
vn 0.000000 1.000000 0.000000
vn 0.000000 1.000000 0.000000
vn 0.000000 1.000000 0.000000
vn 0.000000 0.000000 -1.000000
vn 0.000000 0.000000 -1.000000
vn 0.000000 0.000000 -1.000000
vn 0.000000 0.000000 -1.000000
vn 0.000000 -1.000000 0.000000
vn 0.000000 -1.000000 0.000000
vn 0.000000 -1.000000 0.000000
vn 0.000000 -1.000000 0.000000
vn 1.000000 0.000000 0.000000
vn 1.000000 0.000000 0.000000
vn 1.000000 0.000000 0.000000
vn 1.000000 0.000000 0.000000
vn -1.000000 0.000000 0.000000
vn -1.000000 0.000000 0.000000
vn -1.000000 0.000000 0.000000
vn -1.000000 0.000000 0.000000
vn 0.000000 0.000000 1.000000
vn 0.000000 0.000000 1.000000
vn -0.013490 0.073796 0.997101
vn -0.013429 0.073460 0.997131
vn -0.180645 0.983458 0.000000
vn -0.180645 0.983458 0.000000
vn -0.180645 0.983458 0.000000
vn -0.180645 0.983458 0.000000
vn 0.013429 -0.073460 -0.997131
vn 0.013490 -0.073796 -0.997101
vn 0.000000 0.000000 -1.000000
vn 0.000000 0.000000 -1.000000
vn 0.180645 -0.983458 0.000000
vn 0.180645 -0.983458 0.000000
vn 0.180645 -0.983458 0.000000
vn 0.180645 -0.983458 0.000000
vn 0.983458 0.180645 0.000000
vn 0.983458 0.180645 0.000000
vn 0.985107 0.171855 0.000000
vn 0.983520 0.180309 0.000000
vn -0.983458 -0.180645 0.000000
vn -0.983458 -0.180645 0.000000
vn -0.983520 -0.180309 0.000000
vn -0.985107 -0.171855 0.000000
vn -0.067936 0.369926 0.926540
vn -0.067936 0.369926 0.926540
vn -0.988281 -0.152048 0.000000
vn -0.988281 -0.152048 0.000000
vn 0.067936 -0.369926 -0.926540
vn 0.067936 -0.369926 -0.926540
vn 0.988281 0.152048 0.000000
vn 0.988281 0.152048 0.000000
vn 0.000000 0.000000 1.000000
vn 0.000000 0.000000 1.000000
vn 0.000000 0.075047 0.997101
vn 0.000000 0.074681 0.997131
vn 0.000000 1.000000 0.000000
vn 0.000000 1.000000 0.000000
vn 0.000000 1.000000 0.000000
vn 0.000000 1.000000 0.000000
vn 0.000000 -0.074681 -0.997131
vn 0.000000 -0.075047 -0.997101
vn 0.000000 0.000000 -1.000000
vn 0.000000 0.000000 -1.000000
vn 0.000000 -1.000000 0.000000
vn 0.000000 -1.000000 0.000000
vn 0.000000 -1.000000 0.000000
vn 0.000000 -1.000000 0.000000
vn 1.000000 0.000000 0.000000
vn 1.000000 0.000000 0.000000
vn 0.999939 -0.008820 0.000000
vn 1.000000 -0.000244 0.000000
vn -1.000000 0.000000 0.000000
vn -1.000000 0.000000 0.000000
vn -1.000000 0.000244 0.000000
vn -0.999939 0.008820 0.000000
vn 0.000000 0.376061 0.926540
vn 0.000000 0.376061 0.926540
vn -0.999573 0.028902 0.000000
vn -0.999573 0.028902 0.000000
vn 0.000000 -0.376061 -0.926540
vn 0.000000 -0.376061 -0.926540
vn 0.999573 -0.028902 0.000000
vn 0.999573 -0.028902 0.000000
vn 0.000000 0.000000 1.000000
vn 0.000000 0.000000 1.000000
vn 0.000000 0.000000 1.000000
vn 0.000000 0.000000 1.000000
vn 0.000000 1.000000 0.000000
vn 0.000000 1.000000 0.000000
vn 0.000000 1.000000 0.000000
vn 0.000000 1.000000 0.000000
vn 0.000000 0.000000 -1.000000
vn 0.000000 0.000000 -1.000000
vn 0.000000 0.000000 -1.000000
vn 0.000000 0.000000 -1.000000
vn 0.000000 -1.000000 0.000000
vn 0.000000 -1.000000 0.000000
vn 0.000000 -1.000000 0.000000
vn 0.000000 -1.000000 0.000000
vn 1.000000 0.000000 0.000000
vn 1.000000 0.000000 0.000000
vn 1.000000 0.000000 0.000000
vn 1.000000 0.000000 0.000000
vn -1.000000 0.000000 0.000000
vn -1.000000 0.000000 0.000000
vn -1.000000 0.000000 0.000000
vn -1.000000 0.000000 0.000000
vn 0.000000 0.000000 1.000000
vn 0.000000 0.000000 1.000000
vn 0.000000 0.000000 1.000000
vn 0.000000 0.000000 1.000000
vn 0.000000 0.000000 1.000000
vn 0.000000 0.000000 1.000000
vn 0.000000 0.000000 1.000000
vn 0.000000 0.000000 1.000000
vn 0.000000 1.000000 0.000000
vn 0.000000 1.000000 0.000000
vn 0.000000 1.000000 0.000000
vn 0.000000 1.000000 0.000000
vn -1.000000 0.000000 0.000000
vn -1.000000 0.000000 0.000000
vn -1.000000 0.000000 0.000000
vn -1.000000 0.000000 0.000000
vn 0.000000 -1.000000 0.000000
vn 0.000000 -1.000000 0.000000
vn 0.000000 -1.000000 0.000000
vn 0.000000 -1.000000 0.000000
vn 1.000000 0.000000 0.000000
vn 1.000000 0.000000 0.000000
vn 1.000000 0.000000 0.000000
vn 1.000000 0.000000 0.000000
# 108 uv coords
vt 0.799734 0.702383
vt 0.803275 0.694150
vt 0.218346 0.807616
vt 0.217723 0.799612
vt 0.263018 0.029336
vt 0.263058 0.020671
vt 0.049936 0.028364
vt 0.049870 0.019700
vt 0.001189 0.009680
vt 0.001018 0.001018
vt 0.850364 0.713204
vt 0.813391 0.873856
vt 0.762285 0.863389
vt 0.554816 0.814942
vt 0.592584 0.654259
vt 0.890340 0.545443
vt 0.854727 0.706224
vt 0.839783 0.532820
vt 0.991729 0.798678
vt 0.996203 0.791257
vt 0.436872 0.598593
vt 0.595032 0.646033
vt 0.434384 0.606893
vt 0.632170 0.485249
vt 0.947676 0.037979
vt 0.996542 0.019329
vt 0.996366 0.027992
vt 0.947608 0.046643
vt 0.734526 0.047620
vt 0.734486 0.038955
vt 0.165628 0.793130
vt 0.183363 0.628688
vt 0.235249 0.635591
vt 0.447285 0.658085
vt 0.430084 0.822389
vt 0.199354 0.971343
vt 0.147173 0.966478
vt 0.166758 0.802007
vt 0.001353 0.808297
vt 0.001018 0.799639
vt 0.594996 0.830649
vt 0.594564 0.839303
vt 0.429622 0.831142
vt 0.411288 0.995365
vt 0.685656 0.962360
vt 0.995490 0.962360
vt 0.995490 0.995612
vt 0.685656 0.995612
vt 0.958305 0.612114
vt 0.744659 0.387720
vt 0.751737 0.380980
vt 0.965392 0.605365
vt 0.744987 0.373907
vt 0.769060 0.350966
vt 0.775813 0.358043
vt 0.782901 0.351294
vt 0.996545 0.575688
vt 0.989468 0.582428
vt 0.972146 0.612443
vt 0.996218 0.589500
vt 0.515768 0.001018
vt 0.825602 0.001018
vt 0.825602 0.034270
vt 0.515768 0.034270
vt 0.958314 0.516483
vt 0.744659 0.292100
vt 0.751742 0.285354
vt 0.965395 0.509740
vt 0.744993 0.278282
vt 0.769065 0.255341
vt 0.775820 0.262416
vt 0.782903 0.255672
vt 0.996553 0.480060
vt 0.989472 0.486805
vt 0.972149 0.516816
vt 0.996223 0.493876
vt 0.001018 0.597151
vt 0.156654 0.597151
vt 0.156654 0.787626
vt 0.001018 0.787626
vt 0.095204 0.366536
vt 0.025495 0.310370
vt 0.072117 0.125689
vt 0.160173 0.109327
vt 0.185503 0.389332
vt 0.250532 0.132138
vt 0.001018 0.304197
vt 0.047631 0.119515
vt 0.581989 0.119947
vt 0.559149 0.210239
vt 0.273385 0.041798
vt 0.584476 0.490242
vt 0.494120 0.467432
vt 0.649452 0.233034
vt 0.471269 0.557772
vt 0.162662 0.479628
vt 0.361427 0.025496
vt 0.512295 0.063722
vt 0.719161 0.289204
vt 0.672532 0.473883
vt 0.383227 0.574076
vt 0.232358 0.535854
vt 0.367626 0.001018
vt 0.518493 0.039251
vt 0.743637 0.295377
vt 0.697017 0.480058
vt 0.377027 0.598556
vt 0.226161 0.560324
# 46 polygons
usemtl initialShadingGroup
s off
g pCube54
f 1/52/1 2/51/2 4/55/3 3/58/4
f 3/58/5 4/55/6 6/56/7 5/57/8
f 5/45/9 6/46/10 8/47/11 7/48/12
f 7/49/13 8/50/14 2/51/15 1/52/16
f 2/51/17 8/53/18 6/54/19 4/55/20
f 7/59/21 1/52/22 3/58/23 5/60/24
g pCube55
f 9/68/25 10/67/26 12/71/27 11/74/28
f 11/74/29 12/71/30 14/72/31 13/73/32
f 13/61/33 14/62/34 16/63/35 15/64/36
f 15/65/37 16/66/38 10/67/39 9/68/40
f 10/67/41 16/69/42 14/70/43 12/71/44
f 15/75/45 9/68/46 11/74/47 13/76/48
s 1
g pCube56
f 17/14/49 18/15/50 25/1/51 26/13/52
s off
f 19/19/53 20/11/54 22/17/55 21/20/56
s 2
f 27/18/57 28/2/58 24/22/59 23/24/60
s off
f 23/21/61 24/22/62 18/15/63 17/23/64
s 3
f 18/15/65 24/22/66 28/2/67 25/1/68
s 4
f 23/6/69 17/5/70 26/7/71 27/8/72
s 1
f 26/13/52 25/1/51 20/11/73 19/12/74
s 4
f 27/8/72 26/7/71 19/9/75 21/10/76
s 2
f 21/16/77 22/17/78 28/2/58 27/18/57
s 3
f 25/1/68 28/2/67 22/17/79 20/11/80
s 1
g pCube51
f 29/43/81 30/44/82 37/36/83 38/3/84
s off
f 31/38/85 32/39/86 34/40/87 33/31/88
s 2
f 39/4/89 40/33/90 36/34/91 35/35/92
s off
f 35/35/93 36/41/94 30/42/95 29/43/96
s 3
f 30/29/97 36/30/98 40/25/99 37/28/100
s 4
f 35/35/101 29/43/102 38/3/103 39/4/104
s 1
f 38/3/84 37/36/83 32/37/105 31/38/106
s 4
f 39/4/104 38/3/103 31/38/107 33/31/108
s 2
f 33/31/109 34/32/110 40/33/90 39/4/89
s 3
f 37/28/100 40/25/99 34/26/111 32/27/112
s off
g pCube53
f 53/77/113 54/78/114 55/79/115 56/80/116
f 43/91/117 44/89/118 46/90/119 45/86/120
f 45/86/121 46/90/122 48/93/123 47/85/124
f 47/85/125 48/93/126 42/95/127 41/96/128
f 42/92/129 48/93/130 46/90/131 44/94/132
f 47/85/133 41/81/134 43/84/135 45/86/136
s 1
f 41/96/137 42/95/138 50/101/139 49/102/140
f 42/92/138 44/94/141 51/99/142 50/100/139
f 44/89/141 43/91/143 52/97/144 51/98/142
f 43/84/143 41/81/137 49/82/140 52/83/144
s off
f 49/102/145 50/101/146 54/107/147 53/108/148
f 50/100/149 51/99/150 55/105/151 54/106/152
f 51/98/153 52/97/154 56/103/155 55/104/156
f 52/83/157 49/82/158 53/87/159 56/88/160
# h3dt: 56 108 160 46
